<svg xmlns="http://www.w3.org/2000/svg" xmlns:xlink="http://www.w3.org/1999/xlink" width="500" zoomAndPan="magnify" viewBox="0 0 375 225" height="300" preserveAspectRatio="xMidYMid meet" version="1.0"><defs><filter x="0%" y="0%" width="100%" height="100%" id="400e070ba9"><feColorMatrix values="0 0 0 0 1 0 0 0 0 1 0 0 0 0 1 0 0 0 1 0" color-interpolation-filters="sRGB"/></filter><g/><clipPath id="c0e713e12d"><path d="M 0 0 L 375 0 L 375 222.105469 L 0 222.105469 Z M 0 0 " clip-rule="nonzero"/></clipPath><clipPath id="c8fca083dc"><path d="M 187.492188 222.105469 C 328.488281 222.105469 442.789062 160.644531 442.789062 84.828125 C 442.789062 9.011719 328.488281 -52.449219 187.492188 -52.449219 C 46.492188 -52.449219 -67.808594 9.011719 -67.808594 84.828125 C -67.808594 160.644531 46.492188 222.105469 187.492188 222.105469 Z M 187.492188 222.105469 " clip-rule="nonzero"/></clipPath><linearGradient x1="63.206866" gradientTransform="matrix(-1.072481, 0, 0, -1.072481, 442.78815, 222.104651)" y1="0" x2="412.863383" gradientUnits="userSpaceOnUse" y2="0" id="7782d59eca"><stop stop-opacity="1" stop-color="rgb(9.191895%, 56.924438%, 86.531067%)" offset="0"/><stop stop-opacity="1" stop-color="rgb(9.130859%, 56.739807%, 86.407471%)" offset="0.015625"/><stop stop-opacity="1" stop-color="rgb(9.008789%, 56.369019%, 86.158752%)" offset="0.03125"/><stop stop-opacity="1" stop-color="rgb(8.888245%, 55.999756%, 85.91156%)" offset="0.046875"/><stop stop-opacity="1" stop-color="rgb(8.766174%, 55.630493%, 85.662842%)" offset="0.0625"/><stop stop-opacity="1" stop-color="rgb(8.644104%, 55.26123%, 85.415649%)" offset="0.078125"/><stop stop-opacity="1" stop-color="rgb(8.522034%, 54.891968%, 85.168457%)" offset="0.09375"/><stop stop-opacity="1" stop-color="rgb(8.401489%, 54.522705%, 84.919739%)" offset="0.109375"/><stop stop-opacity="1" stop-color="rgb(8.279419%, 54.151917%, 84.672546%)" offset="0.125"/><stop stop-opacity="1" stop-color="rgb(8.157349%, 53.782654%, 84.423828%)" offset="0.140625"/><stop stop-opacity="1" stop-color="rgb(8.036804%, 53.413391%, 84.176636%)" offset="0.15625"/><stop stop-opacity="1" stop-color="rgb(7.914734%, 53.044128%, 83.927917%)" offset="0.171875"/><stop stop-opacity="1" stop-color="rgb(7.792664%, 52.674866%, 83.680725%)" offset="0.1875"/><stop stop-opacity="1" stop-color="rgb(7.670593%, 52.305603%, 83.432007%)" offset="0.203125"/><stop stop-opacity="1" stop-color="rgb(7.550049%, 51.934814%, 83.184814%)" offset="0.21875"/><stop stop-opacity="1" stop-color="rgb(7.427979%, 51.565552%, 82.937622%)" offset="0.234375"/><stop stop-opacity="1" stop-color="rgb(7.305908%, 51.196289%, 82.688904%)" offset="0.25"/><stop stop-opacity="1" stop-color="rgb(7.183838%, 50.827026%, 82.441711%)" offset="0.265625"/><stop stop-opacity="1" stop-color="rgb(7.063293%, 50.457764%, 82.192993%)" offset="0.28125"/><stop stop-opacity="1" stop-color="rgb(6.941223%, 50.088501%, 81.945801%)" offset="0.296875"/><stop stop-opacity="1" stop-color="rgb(6.819153%, 49.717712%, 81.697083%)" offset="0.3125"/><stop stop-opacity="1" stop-color="rgb(6.698608%, 49.34845%, 81.44989%)" offset="0.328125"/><stop stop-opacity="1" stop-color="rgb(6.576538%, 48.979187%, 81.201172%)" offset="0.34375"/><stop stop-opacity="1" stop-color="rgb(6.454468%, 48.609924%, 80.953979%)" offset="0.359375"/><stop stop-opacity="1" stop-color="rgb(6.332397%, 48.240662%, 80.706787%)" offset="0.375"/><stop stop-opacity="1" stop-color="rgb(6.211853%, 47.871399%, 80.458069%)" offset="0.390625"/><stop stop-opacity="1" stop-color="rgb(6.089783%, 47.50061%, 80.210876%)" offset="0.40625"/><stop stop-opacity="1" stop-color="rgb(5.967712%, 47.131348%, 79.962158%)" offset="0.421875"/><stop stop-opacity="1" stop-color="rgb(5.847168%, 46.762085%, 79.714966%)" offset="0.4375"/><stop stop-opacity="1" stop-color="rgb(5.725098%, 46.392822%, 79.466248%)" offset="0.453125"/><stop stop-opacity="1" stop-color="rgb(5.603027%, 46.02356%, 79.219055%)" offset="0.46875"/><stop stop-opacity="1" stop-color="rgb(5.480957%, 45.654297%, 78.970337%)" offset="0.484375"/><stop stop-opacity="1" stop-color="rgb(5.360413%, 45.283508%, 78.723145%)" offset="0.5"/><stop stop-opacity="1" stop-color="rgb(5.238342%, 44.914246%, 78.474426%)" offset="0.515625"/><stop stop-opacity="1" stop-color="rgb(5.116272%, 44.544983%, 78.227234%)" offset="0.53125"/><stop stop-opacity="1" stop-color="rgb(4.995728%, 44.17572%, 77.980042%)" offset="0.546875"/><stop stop-opacity="1" stop-color="rgb(4.873657%, 43.806458%, 77.731323%)" offset="0.5625"/><stop stop-opacity="1" stop-color="rgb(4.751587%, 43.437195%, 77.484131%)" offset="0.578125"/><stop stop-opacity="1" stop-color="rgb(4.629517%, 43.066406%, 77.235413%)" offset="0.59375"/><stop stop-opacity="1" stop-color="rgb(4.508972%, 42.697144%, 76.98822%)" offset="0.609375"/><stop stop-opacity="1" stop-color="rgb(4.386902%, 42.327881%, 76.739502%)" offset="0.625"/><stop stop-opacity="1" stop-color="rgb(4.264832%, 41.958618%, 76.49231%)" offset="0.640625"/><stop stop-opacity="1" stop-color="rgb(4.142761%, 41.589355%, 76.243591%)" offset="0.65625"/><stop stop-opacity="1" stop-color="rgb(4.022217%, 41.220093%, 75.996399%)" offset="0.671875"/><stop stop-opacity="1" stop-color="rgb(3.900146%, 40.849304%, 75.749207%)" offset="0.6875"/><stop stop-opacity="1" stop-color="rgb(3.778076%, 40.480042%, 75.500488%)" offset="0.703125"/><stop stop-opacity="1" stop-color="rgb(3.657532%, 40.110779%, 75.253296%)" offset="0.71875"/><stop stop-opacity="1" stop-color="rgb(3.535461%, 39.741516%, 75.004578%)" offset="0.734375"/><stop stop-opacity="1" stop-color="rgb(3.413391%, 39.372253%, 74.757385%)" offset="0.75"/><stop stop-opacity="1" stop-color="rgb(3.291321%, 39.002991%, 74.508667%)" offset="0.765625"/><stop stop-opacity="1" stop-color="rgb(3.170776%, 38.632202%, 74.261475%)" offset="0.78125"/><stop stop-opacity="1" stop-color="rgb(3.048706%, 38.262939%, 74.012756%)" offset="0.796875"/><stop stop-opacity="1" stop-color="rgb(2.926636%, 37.893677%, 73.765564%)" offset="0.8125"/><stop stop-opacity="1" stop-color="rgb(2.806091%, 37.524414%, 73.516846%)" offset="0.828125"/><stop stop-opacity="1" stop-color="rgb(2.684021%, 37.155151%, 73.269653%)" offset="0.84375"/><stop stop-opacity="1" stop-color="rgb(2.561951%, 36.785889%, 73.022461%)" offset="0.859375"/><stop stop-opacity="1" stop-color="rgb(2.43988%, 36.4151%, 72.773743%)" offset="0.875"/><stop stop-opacity="1" stop-color="rgb(2.319336%, 36.045837%, 72.52655%)" offset="0.890625"/><stop stop-opacity="1" stop-color="rgb(2.197266%, 35.676575%, 72.277832%)" offset="0.90625"/><stop stop-opacity="1" stop-color="rgb(2.075195%, 35.307312%, 72.03064%)" offset="0.921875"/><stop stop-opacity="1" stop-color="rgb(1.954651%, 34.938049%, 71.781921%)" offset="0.9375"/><stop stop-opacity="1" stop-color="rgb(1.832581%, 34.567261%, 71.534729%)" offset="0.953125"/><stop stop-opacity="1" stop-color="rgb(1.71051%, 34.197998%, 71.286011%)" offset="0.96875"/><stop stop-opacity="1" stop-color="rgb(1.58844%, 33.828735%, 71.038818%)" offset="0.984375"/><stop stop-opacity="1" stop-color="rgb(1.467896%, 33.459473%, 70.791626%)" offset="1"/></linearGradient><clipPath id="c7e244e0dd"><path d="M 70.335938 68.964844 L 113.351562 68.964844 L 113.351562 106.65625 L 70.335938 106.65625 Z M 70.335938 68.964844 " clip-rule="nonzero"/></clipPath><clipPath id="31f63312a5"><path d="M 70.335938 80.082031 C 70.335938 92.054688 91.820312 106.65625 91.820312 106.65625 C 91.820312 106.65625 113.210938 91.953125 113.304688 80.082031 C 113.304688 73.957031 108.3125 68.964844 102.1875 68.964844 C 97.476562 68.964844 93.417969 71.980469 91.820312 76.121094 C 90.222656 71.980469 86.167969 68.964844 81.457031 68.964844 C 75.328125 68.964844 70.335938 73.957031 70.335938 80.082031 " clip-rule="nonzero"/></clipPath><mask id="ade8d68bba"><g filter="url(#400e070ba9)"><rect x="-37.5" width="450" fill="#000000" y="-22.5" height="270" fill-opacity="0.82"/></g></mask><clipPath id="14342f7822"><path d="M 0.722656 0.660156 L 34.957031 0.660156 L 34.957031 30.65625 L 0.722656 30.65625 Z M 0.722656 0.660156 " clip-rule="nonzero"/></clipPath><clipPath id="1a17881031"><path d="M 0.722656 9.507812 C 0.722656 19.035156 17.820312 30.65625 17.820312 30.65625 C 17.820312 30.65625 34.84375 18.953125 34.917969 9.507812 C 34.917969 4.632812 30.945312 0.660156 26.070312 0.660156 C 22.320312 0.660156 19.09375 3.058594 17.820312 6.355469 C 16.550781 3.058594 13.320312 0.660156 9.574219 0.660156 C 4.695312 0.660156 0.722656 4.632812 0.722656 9.507812 " clip-rule="nonzero"/></clipPath><clipPath id="099b17684b"><rect x="0" width="35" y="0" height="31"/></clipPath><clipPath id="7d574a46f7"><path d="M 70.335938 83.308594 L 93.683594 83.308594 L 93.683594 106.65625 L 70.335938 106.65625 Z M 70.335938 83.308594 " clip-rule="nonzero"/></clipPath><clipPath id="2d8c0901f0"><path d="M 84.136719 83.308594 L 79.882812 83.308594 C 79.285156 83.308594 78.714844 83.546875 78.292969 83.96875 C 77.871094 84.390625 77.632812 84.964844 77.632812 85.558594 L 77.632812 88.355469 C 77.632812 88.953125 77.394531 89.523438 76.972656 89.945312 C 76.550781 90.367188 75.980469 90.605469 75.382812 90.605469 L 72.585938 90.605469 C 71.988281 90.605469 71.417969 90.84375 70.996094 91.265625 C 70.574219 91.6875 70.335938 92.257812 70.335938 92.855469 L 70.335938 97.109375 C 70.335938 97.707031 70.574219 98.28125 70.996094 98.703125 C 71.417969 99.125 71.988281 99.359375 72.585938 99.359375 L 75.382812 99.359375 C 75.980469 99.359375 76.550781 99.597656 76.972656 100.019531 C 77.394531 100.441406 77.632812 101.011719 77.632812 101.609375 L 77.632812 104.40625 C 77.632812 105.003906 77.871094 105.574219 78.292969 105.996094 C 78.714844 106.417969 79.285156 106.65625 79.882812 106.65625 L 84.136719 106.65625 C 84.734375 106.65625 85.304688 106.417969 85.726562 105.996094 C 86.148438 105.574219 86.386719 105.003906 86.386719 104.40625 L 86.386719 101.609375 C 86.386719 101.011719 86.625 100.441406 87.046875 100.019531 C 87.46875 99.597656 88.039062 99.359375 88.636719 99.359375 L 91.433594 99.359375 C 92.027344 99.359375 92.601562 99.125 93.023438 98.703125 C 93.445312 98.28125 93.683594 97.707031 93.683594 97.109375 L 93.683594 92.855469 C 93.683594 92.257812 93.445312 91.6875 93.023438 91.265625 C 92.601562 90.84375 92.027344 90.605469 91.433594 90.605469 L 88.636719 90.605469 C 88.039062 90.605469 87.46875 90.367188 87.046875 89.945312 C 86.625 89.523438 86.386719 88.953125 86.386719 88.355469 L 86.386719 85.558594 C 86.386719 84.964844 86.148438 84.390625 85.726562 83.96875 C 85.304688 83.546875 84.734375 83.308594 84.136719 83.308594 Z M 84.136719 83.308594 " clip-rule="nonzero"/></clipPath></defs><rect x="-37.5" width="450" fill="#ffffff" y="-22.5" height="270" fill-opacity="1"/><rect x="-37.5" width="450" fill="#ffffff" y="-22.5" height="270" fill-opacity="1"/><g clip-path="url(#c0e713e12d)"><g clip-path="url(#c8fca083dc)"><path fill="url(#7782d59eca)" d="M 375 222.105469 L 375 0 L 0 0 L 0 222.105469 Z M 375 222.105469 " fill-rule="nonzero"/></g></g><g fill="#ffffff" fill-opacity="1"><g transform="translate(141.582299, 120.694903)"><g><path d="M 5.140625 -1.625 L 1.9375 -1.625 L 1.359375 0 L 0.34375 0 L 3 -7.28125 L 4.09375 -7.28125 L 6.734375 0 L 5.71875 0 Z M 4.859375 -2.40625 L 3.53125 -6.09375 L 2.21875 -2.40625 Z M 4.859375 -2.40625 "/></g></g></g><g fill="#ffffff" fill-opacity="1"><g transform="translate(148.662631, 120.694903)"><g><path d="M 1.765625 -4.6875 C 1.953125 -5.019531 2.234375 -5.296875 2.609375 -5.515625 C 2.984375 -5.734375 3.421875 -5.84375 3.921875 -5.84375 C 4.429688 -5.84375 4.894531 -5.71875 5.3125 -5.46875 C 5.726562 -5.226562 6.050781 -4.882812 6.28125 -4.4375 C 6.519531 -4 6.640625 -3.484375 6.640625 -2.890625 C 6.640625 -2.316406 6.519531 -1.800781 6.28125 -1.34375 C 6.050781 -0.882812 5.726562 -0.53125 5.3125 -0.28125 C 4.894531 -0.03125 4.429688 0.09375 3.921875 0.09375 C 3.429688 0.09375 3 -0.015625 2.625 -0.234375 C 2.25 -0.453125 1.960938 -0.726562 1.765625 -1.0625 L 1.765625 2.734375 L 0.8125 2.734375 L 0.8125 -5.75 L 1.765625 -5.75 Z M 5.671875 -2.890625 C 5.671875 -3.328125 5.582031 -3.707031 5.40625 -4.03125 C 5.226562 -4.351562 4.988281 -4.597656 4.6875 -4.765625 C 4.394531 -4.929688 4.070312 -5.015625 3.71875 -5.015625 C 3.363281 -5.015625 3.035156 -4.925781 2.734375 -4.75 C 2.441406 -4.582031 2.207031 -4.335938 2.03125 -4.015625 C 1.851562 -3.691406 1.765625 -3.316406 1.765625 -2.890625 C 1.765625 -2.453125 1.851562 -2.070312 2.03125 -1.75 C 2.207031 -1.425781 2.441406 -1.175781 2.734375 -1 C 3.035156 -0.832031 3.363281 -0.75 3.71875 -0.75 C 4.070312 -0.75 4.394531 -0.832031 4.6875 -1 C 4.988281 -1.175781 5.226562 -1.425781 5.40625 -1.75 C 5.582031 -2.070312 5.671875 -2.453125 5.671875 -2.890625 Z M 5.671875 -2.890625 "/></g></g></g><g fill="#ffffff" fill-opacity="1"><g transform="translate(155.763974, 120.694903)"><g><path d="M 1.765625 -4.8125 C 1.929688 -5.144531 2.171875 -5.398438 2.484375 -5.578125 C 2.796875 -5.765625 3.175781 -5.859375 3.625 -5.859375 L 3.625 -4.875 L 3.375 -4.875 C 2.300781 -4.875 1.765625 -4.289062 1.765625 -3.125 L 1.765625 0 L 0.8125 0 L 0.8125 -5.75 L 1.765625 -5.75 Z M 1.765625 -4.8125 "/></g></g></g><g fill="#ffffff" fill-opacity="1"><g transform="translate(159.682318, 120.694903)"><g><path d="M 6.0625 -3.09375 C 6.0625 -2.914062 6.050781 -2.722656 6.03125 -2.515625 L 1.421875 -2.515625 C 1.460938 -1.953125 1.660156 -1.507812 2.015625 -1.1875 C 2.367188 -0.875 2.796875 -0.71875 3.296875 -0.71875 C 3.710938 -0.71875 4.054688 -0.8125 4.328125 -1 C 4.609375 -1.195312 4.800781 -1.457031 4.90625 -1.78125 L 5.9375 -1.78125 C 5.789062 -1.21875 5.484375 -0.765625 5.015625 -0.421875 C 4.554688 -0.078125 3.984375 0.09375 3.296875 0.09375 C 2.753906 0.09375 2.265625 -0.0234375 1.828125 -0.265625 C 1.398438 -0.515625 1.0625 -0.863281 0.8125 -1.3125 C 0.570312 -1.769531 0.453125 -2.296875 0.453125 -2.890625 C 0.453125 -3.484375 0.570312 -4.003906 0.8125 -4.453125 C 1.050781 -4.898438 1.382812 -5.242188 1.8125 -5.484375 C 2.238281 -5.722656 2.734375 -5.84375 3.296875 -5.84375 C 3.835938 -5.84375 4.316406 -5.722656 4.734375 -5.484375 C 5.160156 -5.253906 5.488281 -4.929688 5.71875 -4.515625 C 5.945312 -4.097656 6.0625 -3.625 6.0625 -3.09375 Z M 5.078125 -3.296875 C 5.078125 -3.660156 4.992188 -3.972656 4.828125 -4.234375 C 4.671875 -4.492188 4.453125 -4.691406 4.171875 -4.828125 C 3.898438 -4.972656 3.59375 -5.046875 3.25 -5.046875 C 2.769531 -5.046875 2.359375 -4.890625 2.015625 -4.578125 C 1.679688 -4.265625 1.488281 -3.835938 1.4375 -3.296875 Z M 5.078125 -3.296875 "/></g></g></g><g fill="#ffffff" fill-opacity="1"><g transform="translate(166.195384, 120.694903)"><g><path d="M 3.609375 -5.859375 C 4.304688 -5.859375 4.875 -5.644531 5.3125 -5.21875 C 5.75 -4.800781 5.96875 -4.191406 5.96875 -3.390625 L 5.96875 0 L 5.015625 0 L 5.015625 -3.25 C 5.015625 -3.820312 4.867188 -4.257812 4.578125 -4.5625 C 4.296875 -4.875 3.90625 -5.03125 3.40625 -5.03125 C 2.90625 -5.03125 2.503906 -4.867188 2.203125 -4.546875 C 1.910156 -4.234375 1.765625 -3.78125 1.765625 -3.1875 L 1.765625 0 L 0.8125 0 L 0.8125 -5.75 L 1.765625 -5.75 L 1.765625 -4.9375 C 1.953125 -5.226562 2.207031 -5.453125 2.53125 -5.609375 C 2.863281 -5.773438 3.222656 -5.859375 3.609375 -5.859375 Z M 3.609375 -5.859375 "/></g></g></g><g fill="#ffffff" fill-opacity="1"><g transform="translate(172.918548, 120.694903)"><g><path d="M 0.453125 -2.890625 C 0.453125 -3.484375 0.570312 -4 0.8125 -4.4375 C 1.050781 -4.882812 1.378906 -5.226562 1.796875 -5.46875 C 2.210938 -5.71875 2.675781 -5.84375 3.1875 -5.84375 C 3.632812 -5.84375 4.050781 -5.738281 4.4375 -5.53125 C 4.820312 -5.332031 5.117188 -5.0625 5.328125 -4.71875 L 5.328125 -7.765625 L 6.296875 -7.765625 L 6.296875 0 L 5.328125 0 L 5.328125 -1.078125 C 5.140625 -0.734375 4.859375 -0.453125 4.484375 -0.234375 C 4.109375 -0.015625 3.675781 0.09375 3.1875 0.09375 C 2.675781 0.09375 2.210938 -0.03125 1.796875 -0.28125 C 1.378906 -0.53125 1.050781 -0.882812 0.8125 -1.34375 C 0.570312 -1.800781 0.453125 -2.316406 0.453125 -2.890625 Z M 5.328125 -2.890625 C 5.328125 -3.316406 5.238281 -3.691406 5.0625 -4.015625 C 4.882812 -4.335938 4.644531 -4.582031 4.34375 -4.75 C 4.050781 -4.925781 3.726562 -5.015625 3.375 -5.015625 C 3.007812 -5.015625 2.679688 -4.929688 2.390625 -4.765625 C 2.097656 -4.597656 1.863281 -4.351562 1.6875 -4.03125 C 1.507812 -3.707031 1.421875 -3.328125 1.421875 -2.890625 C 1.421875 -2.453125 1.507812 -2.070312 1.6875 -1.75 C 1.863281 -1.425781 2.097656 -1.175781 2.390625 -1 C 2.679688 -0.832031 3.007812 -0.75 3.375 -0.75 C 3.726562 -0.75 4.050781 -0.832031 4.34375 -1 C 4.644531 -1.175781 4.882812 -1.425781 5.0625 -1.75 C 5.238281 -2.070312 5.328125 -2.453125 5.328125 -2.890625 Z M 5.328125 -2.890625 "/></g></g></g><g fill="#ffffff" fill-opacity="1"><g transform="translate(180.01989, 120.694903)"><g><path d="M 6.0625 -3.09375 C 6.0625 -2.914062 6.050781 -2.722656 6.03125 -2.515625 L 1.421875 -2.515625 C 1.460938 -1.953125 1.660156 -1.507812 2.015625 -1.1875 C 2.367188 -0.875 2.796875 -0.71875 3.296875 -0.71875 C 3.710938 -0.71875 4.054688 -0.8125 4.328125 -1 C 4.609375 -1.195312 4.800781 -1.457031 4.90625 -1.78125 L 5.9375 -1.78125 C 5.789062 -1.21875 5.484375 -0.765625 5.015625 -0.421875 C 4.554688 -0.078125 3.984375 0.09375 3.296875 0.09375 C 2.753906 0.09375 2.265625 -0.0234375 1.828125 -0.265625 C 1.398438 -0.515625 1.0625 -0.863281 0.8125 -1.3125 C 0.570312 -1.769531 0.453125 -2.296875 0.453125 -2.890625 C 0.453125 -3.484375 0.570312 -4.003906 0.8125 -4.453125 C 1.050781 -4.898438 1.382812 -5.242188 1.8125 -5.484375 C 2.238281 -5.722656 2.734375 -5.84375 3.296875 -5.84375 C 3.835938 -5.84375 4.316406 -5.722656 4.734375 -5.484375 C 5.160156 -5.253906 5.488281 -4.929688 5.71875 -4.515625 C 5.945312 -4.097656 6.0625 -3.625 6.0625 -3.09375 Z M 5.078125 -3.296875 C 5.078125 -3.660156 4.992188 -3.972656 4.828125 -4.234375 C 4.671875 -4.492188 4.453125 -4.691406 4.171875 -4.828125 C 3.898438 -4.972656 3.59375 -5.046875 3.25 -5.046875 C 2.769531 -5.046875 2.359375 -4.890625 2.015625 -4.578125 C 1.679688 -4.265625 1.488281 -3.835938 1.4375 -3.296875 Z M 5.078125 -3.296875 "/></g></g></g><g fill="#ffffff" fill-opacity="1"><g transform="translate(186.532953, 120.694903)"><g/></g></g><g fill="#ffffff" fill-opacity="1"><g transform="translate(189.33777, 120.694903)"><g><path d="M 0.453125 -2.890625 C 0.453125 -3.484375 0.570312 -4 0.8125 -4.4375 C 1.050781 -4.882812 1.378906 -5.226562 1.796875 -5.46875 C 2.210938 -5.71875 2.675781 -5.84375 3.1875 -5.84375 C 3.6875 -5.84375 4.117188 -5.734375 4.484375 -5.515625 C 4.859375 -5.304688 5.140625 -5.035156 5.328125 -4.703125 L 5.328125 -5.75 L 6.296875 -5.75 L 6.296875 0 L 5.328125 0 L 5.328125 -1.078125 C 5.140625 -0.734375 4.859375 -0.453125 4.484375 -0.234375 C 4.109375 -0.015625 3.671875 0.09375 3.171875 0.09375 C 2.660156 0.09375 2.195312 -0.03125 1.78125 -0.28125 C 1.375 -0.53125 1.050781 -0.882812 0.8125 -1.34375 C 0.570312 -1.800781 0.453125 -2.316406 0.453125 -2.890625 Z M 5.328125 -2.890625 C 5.328125 -3.316406 5.238281 -3.691406 5.0625 -4.015625 C 4.882812 -4.335938 4.644531 -4.582031 4.34375 -4.75 C 4.050781 -4.925781 3.726562 -5.015625 3.375 -5.015625 C 3.007812 -5.015625 2.679688 -4.929688 2.390625 -4.765625 C 2.097656 -4.597656 1.863281 -4.351562 1.6875 -4.03125 C 1.507812 -3.707031 1.421875 -3.328125 1.421875 -2.890625 C 1.421875 -2.453125 1.507812 -2.070312 1.6875 -1.75 C 1.863281 -1.425781 2.097656 -1.175781 2.390625 -1 C 2.679688 -0.832031 3.007812 -0.75 3.375 -0.75 C 3.726562 -0.75 4.050781 -0.832031 4.34375 -1 C 4.644531 -1.175781 4.882812 -1.425781 5.0625 -1.75 C 5.238281 -2.070312 5.328125 -2.453125 5.328125 -2.890625 Z M 5.328125 -2.890625 "/></g></g></g><g fill="#ffffff" fill-opacity="1"><g transform="translate(196.43911, 120.694903)"><g><path d="M 0.453125 -2.890625 C 0.453125 -3.484375 0.570312 -4 0.8125 -4.4375 C 1.050781 -4.882812 1.378906 -5.226562 1.796875 -5.46875 C 2.222656 -5.71875 2.707031 -5.84375 3.25 -5.84375 C 3.957031 -5.84375 4.539062 -5.671875 5 -5.328125 C 5.457031 -4.984375 5.757812 -4.507812 5.90625 -3.90625 L 4.875 -3.90625 C 4.78125 -4.257812 4.59375 -4.535156 4.3125 -4.734375 C 4.03125 -4.941406 3.675781 -5.046875 3.25 -5.046875 C 2.707031 -5.046875 2.265625 -4.859375 1.921875 -4.484375 C 1.585938 -4.109375 1.421875 -3.578125 1.421875 -2.890625 C 1.421875 -2.191406 1.585938 -1.65625 1.921875 -1.28125 C 2.265625 -0.90625 2.707031 -0.71875 3.25 -0.71875 C 3.675781 -0.71875 4.023438 -0.8125 4.296875 -1 C 4.578125 -1.195312 4.769531 -1.476562 4.875 -1.84375 L 5.90625 -1.84375 C 5.757812 -1.257812 5.453125 -0.789062 4.984375 -0.4375 C 4.523438 -0.0820312 3.945312 0.09375 3.25 0.09375 C 2.707031 0.09375 2.222656 -0.0234375 1.796875 -0.265625 C 1.378906 -0.515625 1.050781 -0.863281 0.8125 -1.3125 C 0.570312 -1.757812 0.453125 -2.285156 0.453125 -2.890625 Z M 0.453125 -2.890625 "/></g></g></g><g fill="#ffffff" fill-opacity="1"><g transform="translate(202.815611, 120.694903)"><g><path d="M 6.0625 -3.09375 C 6.0625 -2.914062 6.050781 -2.722656 6.03125 -2.515625 L 1.421875 -2.515625 C 1.460938 -1.953125 1.660156 -1.507812 2.015625 -1.1875 C 2.367188 -0.875 2.796875 -0.71875 3.296875 -0.71875 C 3.710938 -0.71875 4.054688 -0.8125 4.328125 -1 C 4.609375 -1.195312 4.800781 -1.457031 4.90625 -1.78125 L 5.9375 -1.78125 C 5.789062 -1.21875 5.484375 -0.765625 5.015625 -0.421875 C 4.554688 -0.078125 3.984375 0.09375 3.296875 0.09375 C 2.753906 0.09375 2.265625 -0.0234375 1.828125 -0.265625 C 1.398438 -0.515625 1.0625 -0.863281 0.8125 -1.3125 C 0.570312 -1.769531 0.453125 -2.296875 0.453125 -2.890625 C 0.453125 -3.484375 0.570312 -4.003906 0.8125 -4.453125 C 1.050781 -4.898438 1.382812 -5.242188 1.8125 -5.484375 C 2.238281 -5.722656 2.734375 -5.84375 3.296875 -5.84375 C 3.835938 -5.84375 4.316406 -5.722656 4.734375 -5.484375 C 5.160156 -5.253906 5.488281 -4.929688 5.71875 -4.515625 C 5.945312 -4.097656 6.0625 -3.625 6.0625 -3.09375 Z M 5.078125 -3.296875 C 5.078125 -3.660156 4.992188 -3.972656 4.828125 -4.234375 C 4.671875 -4.492188 4.453125 -4.691406 4.171875 -4.828125 C 3.898438 -4.972656 3.59375 -5.046875 3.25 -5.046875 C 2.769531 -5.046875 2.359375 -4.890625 2.015625 -4.578125 C 1.679688 -4.265625 1.488281 -3.835938 1.4375 -3.296875 Z M 5.078125 -3.296875 "/></g></g></g><g fill="#ffffff" fill-opacity="1"><g transform="translate(209.328676, 120.694903)"><g><path d="M 1.765625 -4.8125 C 1.929688 -5.144531 2.171875 -5.398438 2.484375 -5.578125 C 2.796875 -5.765625 3.175781 -5.859375 3.625 -5.859375 L 3.625 -4.875 L 3.375 -4.875 C 2.300781 -4.875 1.765625 -4.289062 1.765625 -3.125 L 1.765625 0 L 0.8125 0 L 0.8125 -5.75 L 1.765625 -5.75 Z M 1.765625 -4.8125 "/></g></g></g><g fill="#ffffff" fill-opacity="1"><g transform="translate(213.247023, 120.694903)"><g><path d="M 0.453125 -2.890625 C 0.453125 -3.484375 0.570312 -4 0.8125 -4.4375 C 1.050781 -4.882812 1.378906 -5.226562 1.796875 -5.46875 C 2.222656 -5.71875 2.707031 -5.84375 3.25 -5.84375 C 3.957031 -5.84375 4.539062 -5.671875 5 -5.328125 C 5.457031 -4.984375 5.757812 -4.507812 5.90625 -3.90625 L 4.875 -3.90625 C 4.78125 -4.257812 4.59375 -4.535156 4.3125 -4.734375 C 4.03125 -4.941406 3.675781 -5.046875 3.25 -5.046875 C 2.707031 -5.046875 2.265625 -4.859375 1.921875 -4.484375 C 1.585938 -4.109375 1.421875 -3.578125 1.421875 -2.890625 C 1.421875 -2.191406 1.585938 -1.65625 1.921875 -1.28125 C 2.265625 -0.90625 2.707031 -0.71875 3.25 -0.71875 C 3.675781 -0.71875 4.023438 -0.8125 4.296875 -1 C 4.578125 -1.195312 4.769531 -1.476562 4.875 -1.84375 L 5.90625 -1.84375 C 5.757812 -1.257812 5.453125 -0.789062 4.984375 -0.4375 C 4.523438 -0.0820312 3.945312 0.09375 3.25 0.09375 C 2.707031 0.09375 2.222656 -0.0234375 1.796875 -0.265625 C 1.378906 -0.515625 1.050781 -0.863281 0.8125 -1.3125 C 0.570312 -1.757812 0.453125 -2.285156 0.453125 -2.890625 Z M 0.453125 -2.890625 "/></g></g></g><g fill="#ffffff" fill-opacity="1"><g transform="translate(219.623524, 120.694903)"><g><path d="M 0.453125 -2.890625 C 0.453125 -3.484375 0.570312 -4 0.8125 -4.4375 C 1.050781 -4.882812 1.378906 -5.226562 1.796875 -5.46875 C 2.210938 -5.71875 2.675781 -5.84375 3.1875 -5.84375 C 3.6875 -5.84375 4.117188 -5.734375 4.484375 -5.515625 C 4.859375 -5.304688 5.140625 -5.035156 5.328125 -4.703125 L 5.328125 -5.75 L 6.296875 -5.75 L 6.296875 0 L 5.328125 0 L 5.328125 -1.078125 C 5.140625 -0.734375 4.859375 -0.453125 4.484375 -0.234375 C 4.109375 -0.015625 3.671875 0.09375 3.171875 0.09375 C 2.660156 0.09375 2.195312 -0.03125 1.78125 -0.28125 C 1.375 -0.53125 1.050781 -0.882812 0.8125 -1.34375 C 0.570312 -1.800781 0.453125 -2.316406 0.453125 -2.890625 Z M 5.328125 -2.890625 C 5.328125 -3.316406 5.238281 -3.691406 5.0625 -4.015625 C 4.882812 -4.335938 4.644531 -4.582031 4.34375 -4.75 C 4.050781 -4.925781 3.726562 -5.015625 3.375 -5.015625 C 3.007812 -5.015625 2.679688 -4.929688 2.390625 -4.765625 C 2.097656 -4.597656 1.863281 -4.351562 1.6875 -4.03125 C 1.507812 -3.707031 1.421875 -3.328125 1.421875 -2.890625 C 1.421875 -2.453125 1.507812 -2.070312 1.6875 -1.75 C 1.863281 -1.425781 2.097656 -1.175781 2.390625 -1 C 2.679688 -0.832031 3.007812 -0.75 3.375 -0.75 C 3.726562 -0.75 4.050781 -0.832031 4.34375 -1 C 4.644531 -1.175781 4.882812 -1.425781 5.0625 -1.75 C 5.238281 -2.070312 5.328125 -2.453125 5.328125 -2.890625 Z M 5.328125 -2.890625 "/></g></g></g><g fill="#ffffff" fill-opacity="1"><g transform="translate(226.724869, 120.694903)"><g/></g></g><g fill="#ffffff" fill-opacity="1"><g transform="translate(229.529686, 120.694903)"><g><path d="M 0.453125 -2.890625 C 0.453125 -3.484375 0.570312 -4 0.8125 -4.4375 C 1.050781 -4.882812 1.378906 -5.226562 1.796875 -5.46875 C 2.210938 -5.71875 2.675781 -5.84375 3.1875 -5.84375 C 3.632812 -5.84375 4.050781 -5.738281 4.4375 -5.53125 C 4.820312 -5.332031 5.117188 -5.0625 5.328125 -4.71875 L 5.328125 -7.765625 L 6.296875 -7.765625 L 6.296875 0 L 5.328125 0 L 5.328125 -1.078125 C 5.140625 -0.734375 4.859375 -0.453125 4.484375 -0.234375 C 4.109375 -0.015625 3.675781 0.09375 3.1875 0.09375 C 2.675781 0.09375 2.210938 -0.03125 1.796875 -0.28125 C 1.378906 -0.53125 1.050781 -0.882812 0.8125 -1.34375 C 0.570312 -1.800781 0.453125 -2.316406 0.453125 -2.890625 Z M 5.328125 -2.890625 C 5.328125 -3.316406 5.238281 -3.691406 5.0625 -4.015625 C 4.882812 -4.335938 4.644531 -4.582031 4.34375 -4.75 C 4.050781 -4.925781 3.726562 -5.015625 3.375 -5.015625 C 3.007812 -5.015625 2.679688 -4.929688 2.390625 -4.765625 C 2.097656 -4.597656 1.863281 -4.351562 1.6875 -4.03125 C 1.507812 -3.707031 1.421875 -3.328125 1.421875 -2.890625 C 1.421875 -2.453125 1.507812 -2.070312 1.6875 -1.75 C 1.863281 -1.425781 2.097656 -1.175781 2.390625 -1 C 2.679688 -0.832031 3.007812 -0.75 3.375 -0.75 C 3.726562 -0.75 4.050781 -0.832031 4.34375 -1 C 4.644531 -1.175781 4.882812 -1.425781 5.0625 -1.75 C 5.238281 -2.070312 5.328125 -2.453125 5.328125 -2.890625 Z M 5.328125 -2.890625 "/></g></g></g><g fill="#ffffff" fill-opacity="1"><g transform="translate(236.631026, 120.694903)"><g><path d="M 6.0625 -3.09375 C 6.0625 -2.914062 6.050781 -2.722656 6.03125 -2.515625 L 1.421875 -2.515625 C 1.460938 -1.953125 1.660156 -1.507812 2.015625 -1.1875 C 2.367188 -0.875 2.796875 -0.71875 3.296875 -0.71875 C 3.710938 -0.71875 4.054688 -0.8125 4.328125 -1 C 4.609375 -1.195312 4.800781 -1.457031 4.90625 -1.78125 L 5.9375 -1.78125 C 5.789062 -1.21875 5.484375 -0.765625 5.015625 -0.421875 C 4.554688 -0.078125 3.984375 0.09375 3.296875 0.09375 C 2.753906 0.09375 2.265625 -0.0234375 1.828125 -0.265625 C 1.398438 -0.515625 1.0625 -0.863281 0.8125 -1.3125 C 0.570312 -1.769531 0.453125 -2.296875 0.453125 -2.890625 C 0.453125 -3.484375 0.570312 -4.003906 0.8125 -4.453125 C 1.050781 -4.898438 1.382812 -5.242188 1.8125 -5.484375 C 2.238281 -5.722656 2.734375 -5.84375 3.296875 -5.84375 C 3.835938 -5.84375 4.316406 -5.722656 4.734375 -5.484375 C 5.160156 -5.253906 5.488281 -4.929688 5.71875 -4.515625 C 5.945312 -4.097656 6.0625 -3.625 6.0625 -3.09375 Z M 5.078125 -3.296875 C 5.078125 -3.660156 4.992188 -3.972656 4.828125 -4.234375 C 4.671875 -4.492188 4.453125 -4.691406 4.171875 -4.828125 C 3.898438 -4.972656 3.59375 -5.046875 3.25 -5.046875 C 2.769531 -5.046875 2.359375 -4.890625 2.015625 -4.578125 C 1.679688 -4.265625 1.488281 -3.835938 1.4375 -3.296875 Z M 5.078125 -3.296875 "/></g></g></g><g fill="#ffffff" fill-opacity="1"><g transform="translate(243.144091, 120.694903)"><g/></g></g><g fill="#ffffff" fill-opacity="1"><g transform="translate(245.948908, 120.694903)"><g><path d="M 1.765625 -7.765625 L 1.765625 0 L 0.8125 0 L 0.8125 -7.765625 Z M 1.765625 -7.765625 "/></g></g></g><g fill="#ffffff" fill-opacity="1"><g transform="translate(248.533122, 120.694903)"><g><path d="M 0.453125 -2.890625 C 0.453125 -3.484375 0.570312 -4 0.8125 -4.4375 C 1.050781 -4.882812 1.378906 -5.226562 1.796875 -5.46875 C 2.210938 -5.71875 2.675781 -5.84375 3.1875 -5.84375 C 3.6875 -5.84375 4.117188 -5.734375 4.484375 -5.515625 C 4.859375 -5.304688 5.140625 -5.035156 5.328125 -4.703125 L 5.328125 -5.75 L 6.296875 -5.75 L 6.296875 0 L 5.328125 0 L 5.328125 -1.078125 C 5.140625 -0.734375 4.859375 -0.453125 4.484375 -0.234375 C 4.109375 -0.015625 3.671875 0.09375 3.171875 0.09375 C 2.660156 0.09375 2.195312 -0.03125 1.78125 -0.28125 C 1.375 -0.53125 1.050781 -0.882812 0.8125 -1.34375 C 0.570312 -1.800781 0.453125 -2.316406 0.453125 -2.890625 Z M 5.328125 -2.890625 C 5.328125 -3.316406 5.238281 -3.691406 5.0625 -4.015625 C 4.882812 -4.335938 4.644531 -4.582031 4.34375 -4.75 C 4.050781 -4.925781 3.726562 -5.015625 3.375 -5.015625 C 3.007812 -5.015625 2.679688 -4.929688 2.390625 -4.765625 C 2.097656 -4.597656 1.863281 -4.351562 1.6875 -4.03125 C 1.507812 -3.707031 1.421875 -3.328125 1.421875 -2.890625 C 1.421875 -2.453125 1.507812 -2.070312 1.6875 -1.75 C 1.863281 -1.425781 2.097656 -1.175781 2.390625 -1 C 2.679688 -0.832031 3.007812 -0.75 3.375 -0.75 C 3.726562 -0.75 4.050781 -0.832031 4.34375 -1 C 4.644531 -1.175781 4.882812 -1.425781 5.0625 -1.75 C 5.238281 -2.070312 5.328125 -2.453125 5.328125 -2.890625 Z M 5.328125 -2.890625 "/></g></g></g><g fill="#ffffff" fill-opacity="1"><g transform="translate(255.634462, 120.694903)"><g/></g></g><g fill="#ffffff" fill-opacity="1"><g transform="translate(258.439279, 120.694903)"><g><path d="M 0.453125 -2.890625 C 0.453125 -3.484375 0.570312 -4 0.8125 -4.4375 C 1.050781 -4.882812 1.378906 -5.226562 1.796875 -5.46875 C 2.210938 -5.71875 2.675781 -5.84375 3.1875 -5.84375 C 3.632812 -5.84375 4.050781 -5.738281 4.4375 -5.53125 C 4.820312 -5.332031 5.117188 -5.0625 5.328125 -4.71875 L 5.328125 -7.765625 L 6.296875 -7.765625 L 6.296875 0 L 5.328125 0 L 5.328125 -1.078125 C 5.140625 -0.734375 4.859375 -0.453125 4.484375 -0.234375 C 4.109375 -0.015625 3.675781 0.09375 3.1875 0.09375 C 2.675781 0.09375 2.210938 -0.03125 1.796875 -0.28125 C 1.378906 -0.53125 1.050781 -0.882812 0.8125 -1.34375 C 0.570312 -1.800781 0.453125 -2.316406 0.453125 -2.890625 Z M 5.328125 -2.890625 C 5.328125 -3.316406 5.238281 -3.691406 5.0625 -4.015625 C 4.882812 -4.335938 4.644531 -4.582031 4.34375 -4.75 C 4.050781 -4.925781 3.726562 -5.015625 3.375 -5.015625 C 3.007812 -5.015625 2.679688 -4.929688 2.390625 -4.765625 C 2.097656 -4.597656 1.863281 -4.351562 1.6875 -4.03125 C 1.507812 -3.707031 1.421875 -3.328125 1.421875 -2.890625 C 1.421875 -2.453125 1.507812 -2.070312 1.6875 -1.75 C 1.863281 -1.425781 2.097656 -1.175781 2.390625 -1 C 2.679688 -0.832031 3.007812 -0.75 3.375 -0.75 C 3.726562 -0.75 4.050781 -0.832031 4.34375 -1 C 4.644531 -1.175781 4.882812 -1.425781 5.0625 -1.75 C 5.238281 -2.070312 5.328125 -2.453125 5.328125 -2.890625 Z M 5.328125 -2.890625 "/></g></g></g><g fill="#ffffff" fill-opacity="1"><g transform="translate(265.54062, 120.694903)"><g><path d="M 1.296875 -6.6875 C 1.117188 -6.6875 0.96875 -6.75 0.84375 -6.875 C 0.71875 -7 0.65625 -7.15625 0.65625 -7.34375 C 0.65625 -7.519531 0.71875 -7.671875 0.84375 -7.796875 C 0.96875 -7.921875 1.117188 -7.984375 1.296875 -7.984375 C 1.472656 -7.984375 1.625 -7.921875 1.75 -7.796875 C 1.875 -7.671875 1.9375 -7.519531 1.9375 -7.34375 C 1.9375 -7.15625 1.875 -7 1.75 -6.875 C 1.625 -6.75 1.472656 -6.6875 1.296875 -6.6875 Z M 1.765625 -5.75 L 1.765625 0 L 0.8125 0 L 0.8125 -5.75 Z M 1.765625 -5.75 "/></g></g></g><g fill="#ffffff" fill-opacity="1"><g transform="translate(268.124833, 120.694903)"><g><path d="M 0.453125 -2.890625 C 0.453125 -3.484375 0.570312 -4 0.8125 -4.4375 C 1.050781 -4.882812 1.378906 -5.226562 1.796875 -5.46875 C 2.210938 -5.71875 2.675781 -5.84375 3.1875 -5.84375 C 3.6875 -5.84375 4.117188 -5.734375 4.484375 -5.515625 C 4.859375 -5.304688 5.140625 -5.035156 5.328125 -4.703125 L 5.328125 -5.75 L 6.296875 -5.75 L 6.296875 0 L 5.328125 0 L 5.328125 -1.078125 C 5.140625 -0.734375 4.859375 -0.453125 4.484375 -0.234375 C 4.109375 -0.015625 3.671875 0.09375 3.171875 0.09375 C 2.660156 0.09375 2.195312 -0.03125 1.78125 -0.28125 C 1.375 -0.53125 1.050781 -0.882812 0.8125 -1.34375 C 0.570312 -1.800781 0.453125 -2.316406 0.453125 -2.890625 Z M 5.328125 -2.890625 C 5.328125 -3.316406 5.238281 -3.691406 5.0625 -4.015625 C 4.882812 -4.335938 4.644531 -4.582031 4.34375 -4.75 C 4.050781 -4.925781 3.726562 -5.015625 3.375 -5.015625 C 3.007812 -5.015625 2.679688 -4.929688 2.390625 -4.765625 C 2.097656 -4.597656 1.863281 -4.351562 1.6875 -4.03125 C 1.507812 -3.707031 1.421875 -3.328125 1.421875 -2.890625 C 1.421875 -2.453125 1.507812 -2.070312 1.6875 -1.75 C 1.863281 -1.425781 2.097656 -1.175781 2.390625 -1 C 2.679688 -0.832031 3.007812 -0.75 3.375 -0.75 C 3.726562 -0.75 4.050781 -0.832031 4.34375 -1 C 4.644531 -1.175781 4.882812 -1.425781 5.0625 -1.75 C 5.238281 -2.070312 5.328125 -2.453125 5.328125 -2.890625 Z M 5.328125 -2.890625 "/></g></g></g><g fill="#ffffff" fill-opacity="1"><g transform="translate(275.226174, 120.694903)"><g><path d="M 1.765625 -4.6875 C 1.960938 -5.03125 2.25 -5.304688 2.625 -5.515625 C 3 -5.734375 3.429688 -5.84375 3.921875 -5.84375 C 4.429688 -5.84375 4.894531 -5.71875 5.3125 -5.46875 C 5.726562 -5.226562 6.050781 -4.882812 6.28125 -4.4375 C 6.519531 -4 6.640625 -3.484375 6.640625 -2.890625 C 6.640625 -2.316406 6.519531 -1.800781 6.28125 -1.34375 C 6.050781 -0.882812 5.726562 -0.53125 5.3125 -0.28125 C 4.894531 -0.03125 4.429688 0.09375 3.921875 0.09375 C 3.421875 0.09375 2.984375 -0.015625 2.609375 -0.234375 C 2.234375 -0.453125 1.953125 -0.726562 1.765625 -1.0625 L 1.765625 0 L 0.8125 0 L 0.8125 -7.765625 L 1.765625 -7.765625 Z M 5.671875 -2.890625 C 5.671875 -3.328125 5.582031 -3.707031 5.40625 -4.03125 C 5.226562 -4.351562 4.988281 -4.597656 4.6875 -4.765625 C 4.394531 -4.929688 4.070312 -5.015625 3.71875 -5.015625 C 3.363281 -5.015625 3.035156 -4.925781 2.734375 -4.75 C 2.441406 -4.582031 2.207031 -4.335938 2.03125 -4.015625 C 1.851562 -3.691406 1.765625 -3.316406 1.765625 -2.890625 C 1.765625 -2.453125 1.851562 -2.070312 2.03125 -1.75 C 2.207031 -1.425781 2.441406 -1.175781 2.734375 -1 C 3.035156 -0.832031 3.363281 -0.75 3.71875 -0.75 C 4.070312 -0.75 4.394531 -0.832031 4.6875 -1 C 4.988281 -1.175781 5.226562 -1.425781 5.40625 -1.75 C 5.582031 -2.070312 5.671875 -2.453125 5.671875 -2.890625 Z M 5.671875 -2.890625 "/></g></g></g><g fill="#ffffff" fill-opacity="1"><g transform="translate(282.327514, 120.694903)"><g><path d="M 6.0625 -3.09375 C 6.0625 -2.914062 6.050781 -2.722656 6.03125 -2.515625 L 1.421875 -2.515625 C 1.460938 -1.953125 1.660156 -1.507812 2.015625 -1.1875 C 2.367188 -0.875 2.796875 -0.71875 3.296875 -0.71875 C 3.710938 -0.71875 4.054688 -0.8125 4.328125 -1 C 4.609375 -1.195312 4.800781 -1.457031 4.90625 -1.78125 L 5.9375 -1.78125 C 5.789062 -1.21875 5.484375 -0.765625 5.015625 -0.421875 C 4.554688 -0.078125 3.984375 0.09375 3.296875 0.09375 C 2.753906 0.09375 2.265625 -0.0234375 1.828125 -0.265625 C 1.398438 -0.515625 1.0625 -0.863281 0.8125 -1.3125 C 0.570312 -1.769531 0.453125 -2.296875 0.453125 -2.890625 C 0.453125 -3.484375 0.570312 -4.003906 0.8125 -4.453125 C 1.050781 -4.898438 1.382812 -5.242188 1.8125 -5.484375 C 2.238281 -5.722656 2.734375 -5.84375 3.296875 -5.84375 C 3.835938 -5.84375 4.316406 -5.722656 4.734375 -5.484375 C 5.160156 -5.253906 5.488281 -4.929688 5.71875 -4.515625 C 5.945312 -4.097656 6.0625 -3.625 6.0625 -3.09375 Z M 5.078125 -3.296875 C 5.078125 -3.660156 4.992188 -3.972656 4.828125 -4.234375 C 4.671875 -4.492188 4.453125 -4.691406 4.171875 -4.828125 C 3.898438 -4.972656 3.59375 -5.046875 3.25 -5.046875 C 2.769531 -5.046875 2.359375 -4.890625 2.015625 -4.578125 C 1.679688 -4.265625 1.488281 -3.835938 1.4375 -3.296875 Z M 5.078125 -3.296875 "/></g></g></g><g fill="#ffffff" fill-opacity="1"><g transform="translate(288.840579, 120.694903)"><g><path d="M 1.96875 -4.96875 L 1.96875 -1.578125 C 1.96875 -1.296875 2.023438 -1.097656 2.140625 -0.984375 C 2.265625 -0.867188 2.472656 -0.8125 2.765625 -0.8125 L 3.46875 -0.8125 L 3.46875 0 L 2.609375 0 C 2.078125 0 1.675781 -0.117188 1.40625 -0.359375 C 1.144531 -0.609375 1.015625 -1.015625 1.015625 -1.578125 L 1.015625 -4.96875 L 0.265625 -4.96875 L 0.265625 -5.75 L 1.015625 -5.75 L 1.015625 -7.203125 L 1.96875 -7.203125 L 1.96875 -5.75 L 3.46875 -5.75 L 3.46875 -4.96875 Z M 1.96875 -4.96875 "/></g></g></g><g fill="#ffffff" fill-opacity="1"><g transform="translate(292.664378, 120.694903)"><g><path d="M 6.0625 -3.09375 C 6.0625 -2.914062 6.050781 -2.722656 6.03125 -2.515625 L 1.421875 -2.515625 C 1.460938 -1.953125 1.660156 -1.507812 2.015625 -1.1875 C 2.367188 -0.875 2.796875 -0.71875 3.296875 -0.71875 C 3.710938 -0.71875 4.054688 -0.8125 4.328125 -1 C 4.609375 -1.195312 4.800781 -1.457031 4.90625 -1.78125 L 5.9375 -1.78125 C 5.789062 -1.21875 5.484375 -0.765625 5.015625 -0.421875 C 4.554688 -0.078125 3.984375 0.09375 3.296875 0.09375 C 2.753906 0.09375 2.265625 -0.0234375 1.828125 -0.265625 C 1.398438 -0.515625 1.0625 -0.863281 0.8125 -1.3125 C 0.570312 -1.769531 0.453125 -2.296875 0.453125 -2.890625 C 0.453125 -3.484375 0.570312 -4.003906 0.8125 -4.453125 C 1.050781 -4.898438 1.382812 -5.242188 1.8125 -5.484375 C 2.238281 -5.722656 2.734375 -5.84375 3.296875 -5.84375 C 3.835938 -5.84375 4.316406 -5.722656 4.734375 -5.484375 C 5.160156 -5.253906 5.488281 -4.929688 5.71875 -4.515625 C 5.945312 -4.097656 6.0625 -3.625 6.0625 -3.09375 Z M 5.078125 -3.296875 C 5.078125 -3.660156 4.992188 -3.972656 4.828125 -4.234375 C 4.671875 -4.492188 4.453125 -4.691406 4.171875 -4.828125 C 3.898438 -4.972656 3.59375 -5.046875 3.25 -5.046875 C 2.769531 -5.046875 2.359375 -4.890625 2.015625 -4.578125 C 1.679688 -4.265625 1.488281 -3.835938 1.4375 -3.296875 Z M 5.078125 -3.296875 "/></g></g></g><g fill="#ffffff" fill-opacity="1"><g transform="translate(299.177444, 120.694903)"><g><path d="M 2.84375 0.09375 C 2.40625 0.09375 2.007812 0.0195312 1.65625 -0.125 C 1.3125 -0.28125 1.035156 -0.492188 0.828125 -0.765625 C 0.628906 -1.035156 0.519531 -1.34375 0.5 -1.6875 L 1.484375 -1.6875 C 1.503906 -1.40625 1.632812 -1.171875 1.875 -0.984375 C 2.125 -0.804688 2.441406 -0.71875 2.828125 -0.71875 C 3.191406 -0.71875 3.476562 -0.796875 3.6875 -0.953125 C 3.90625 -1.117188 4.015625 -1.320312 4.015625 -1.5625 C 4.015625 -1.8125 3.898438 -2 3.671875 -2.125 C 3.453125 -2.25 3.109375 -2.367188 2.640625 -2.484375 C 2.210938 -2.597656 1.863281 -2.710938 1.59375 -2.828125 C 1.320312 -2.941406 1.085938 -3.113281 0.890625 -3.34375 C 0.703125 -3.570312 0.609375 -3.867188 0.609375 -4.234375 C 0.609375 -4.535156 0.695312 -4.804688 0.875 -5.046875 C 1.050781 -5.296875 1.296875 -5.488281 1.609375 -5.625 C 1.929688 -5.769531 2.300781 -5.84375 2.71875 -5.84375 C 3.351562 -5.84375 3.863281 -5.679688 4.25 -5.359375 C 4.644531 -5.035156 4.859375 -4.597656 4.890625 -4.046875 L 3.9375 -4.046875 C 3.914062 -4.347656 3.796875 -4.585938 3.578125 -4.765625 C 3.359375 -4.953125 3.0625 -5.046875 2.6875 -5.046875 C 2.34375 -5.046875 2.066406 -4.96875 1.859375 -4.8125 C 1.660156 -4.664062 1.5625 -4.472656 1.5625 -4.234375 C 1.5625 -4.046875 1.625 -3.890625 1.75 -3.765625 C 1.875 -3.648438 2.023438 -3.554688 2.203125 -3.484375 C 2.390625 -3.410156 2.648438 -3.328125 2.984375 -3.234375 C 3.390625 -3.117188 3.722656 -3.003906 3.984375 -2.890625 C 4.242188 -2.785156 4.46875 -2.625 4.65625 -2.40625 C 4.84375 -2.195312 4.941406 -1.914062 4.953125 -1.5625 C 4.953125 -1.25 4.863281 -0.96875 4.6875 -0.71875 C 4.507812 -0.46875 4.257812 -0.269531 3.9375 -0.125 C 3.625 0.0195312 3.257812 0.09375 2.84375 0.09375 Z M 2.84375 0.09375 "/></g></g></g><g fill="#ffffff" fill-opacity="1"><g transform="translate(117.842237, 99.023797)"><g><path d="M 2.171875 0 L 2.171875 -24.3125 L 9.65625 -24.3125 C 11.789062 -24.3125 13.695312 -23.828125 15.375 -22.859375 C 17.0625 -21.898438 18.378906 -20.53125 19.328125 -18.75 C 20.273438 -16.976562 20.75 -14.960938 20.75 -12.703125 L 20.75 -11.578125 C 20.75 -9.328125 20.285156 -7.320312 19.359375 -5.5625 C 18.429688 -3.800781 17.117188 -2.4375 15.421875 -1.46875 C 13.734375 -0.5 11.828125 -0.0078125 9.703125 0 Z M 7.171875 -20.25 L 7.171875 -4.015625 L 9.59375 -4.015625 C 11.550781 -4.015625 13.046875 -4.65625 14.078125 -5.9375 C 15.117188 -7.21875 15.648438 -9.050781 15.671875 -11.4375 L 15.671875 -12.71875 C 15.671875 -15.1875 15.160156 -17.054688 14.140625 -18.328125 C 13.117188 -19.609375 11.625 -20.25 9.65625 -20.25 Z M 7.171875 -20.25 "/></g></g></g><g fill="#ffffff" fill-opacity="1"><g transform="translate(140.061735, 99.023797)"><g><path d="M 6.9375 0 L 2.109375 0 L 2.109375 -18.0625 L 6.9375 -18.0625 Z M 1.8125 -22.734375 C 1.8125 -23.460938 2.050781 -24.054688 2.53125 -24.515625 C 3.019531 -24.984375 3.6875 -25.21875 4.53125 -25.21875 C 5.351562 -25.21875 6.007812 -24.984375 6.5 -24.515625 C 6.988281 -24.054688 7.234375 -23.460938 7.234375 -22.734375 C 7.234375 -22.003906 6.984375 -21.40625 6.484375 -20.9375 C 5.992188 -20.46875 5.34375 -20.234375 4.53125 -20.234375 C 3.71875 -20.234375 3.0625 -20.46875 2.5625 -20.9375 C 2.0625 -21.40625 1.8125 -22.003906 1.8125 -22.734375 Z M 1.8125 -22.734375 "/></g></g></g><g fill="#ffffff" fill-opacity="1"><g transform="translate(149.126489, 99.023797)"><g><path d="M 12.3125 0 C 12.09375 -0.4375 11.929688 -0.976562 11.828125 -1.625 C 10.660156 -0.320312 9.144531 0.328125 7.28125 0.328125 C 5.507812 0.328125 4.039062 -0.179688 2.875 -1.203125 C 1.71875 -2.222656 1.140625 -3.515625 1.140625 -5.078125 C 1.140625 -6.992188 1.847656 -8.460938 3.265625 -9.484375 C 4.679688 -10.503906 6.734375 -11.019531 9.421875 -11.03125 L 11.640625 -11.03125 L 11.640625 -12.0625 C 11.640625 -12.90625 11.421875 -13.578125 10.984375 -14.078125 C 10.554688 -14.578125 9.882812 -14.828125 8.96875 -14.828125 C 8.15625 -14.828125 7.515625 -14.628906 7.046875 -14.234375 C 6.585938 -13.847656 6.359375 -13.316406 6.359375 -12.640625 L 1.53125 -12.640625 C 1.53125 -13.679688 1.851562 -14.644531 2.5 -15.53125 C 3.144531 -16.425781 4.054688 -17.125 5.234375 -17.625 C 6.421875 -18.132812 7.75 -18.390625 9.21875 -18.390625 C 11.4375 -18.390625 13.195312 -17.832031 14.5 -16.71875 C 15.8125 -15.601562 16.46875 -14.03125 16.46875 -12 L 16.46875 -4.171875 C 16.488281 -2.460938 16.726562 -1.164062 17.1875 -0.28125 L 17.1875 0 Z M 8.328125 -3.359375 C 9.035156 -3.359375 9.691406 -3.515625 10.296875 -3.828125 C 10.898438 -4.148438 11.347656 -4.578125 11.640625 -5.109375 L 11.640625 -8.21875 L 9.828125 -8.21875 C 7.410156 -8.21875 6.125 -7.378906 5.96875 -5.703125 L 5.953125 -5.421875 C 5.953125 -4.828125 6.164062 -4.332031 6.59375 -3.9375 C 7.019531 -3.550781 7.597656 -3.359375 8.328125 -3.359375 Z M 8.328125 -3.359375 "/></g></g></g><g fill="#ffffff" fill-opacity="1"><g transform="translate(167.456323, 99.023797)"><g><path d="M 18.125 -8.859375 C 18.125 -5.972656 17.503906 -3.71875 16.265625 -2.09375 C 15.035156 -0.476562 13.3125 0.328125 11.09375 0.328125 C 9.132812 0.328125 7.570312 -0.421875 6.40625 -1.921875 L 6.1875 0 L 1.859375 0 L 1.859375 -25.640625 L 6.671875 -25.640625 L 6.671875 -16.4375 C 7.785156 -17.738281 9.25 -18.390625 11.0625 -18.390625 C 13.269531 -18.390625 15 -17.578125 16.25 -15.953125 C 17.5 -14.335938 18.125 -12.0625 18.125 -9.125 Z M 13.296875 -9.21875 C 13.296875 -11.039062 13.003906 -12.367188 12.421875 -13.203125 C 11.847656 -14.046875 10.988281 -14.46875 9.84375 -14.46875 C 8.3125 -14.46875 7.253906 -13.84375 6.671875 -12.59375 L 6.671875 -5.453125 C 7.265625 -4.191406 8.332031 -3.5625 9.875 -3.5625 C 11.4375 -3.5625 12.460938 -4.328125 12.953125 -5.859375 C 13.179688 -6.597656 13.296875 -7.71875 13.296875 -9.21875 Z M 13.296875 -9.21875 "/></g></g></g><g fill="#64ebb6" fill-opacity="1"><g transform="translate(186.706839, 99.023797)"><g><path d="M 21.25 -8.09375 C 21.0625 -5.476562 20.09375 -3.421875 18.34375 -1.921875 C 16.601562 -0.421875 14.3125 0.328125 11.46875 0.328125 C 8.351562 0.328125 5.898438 -0.71875 4.109375 -2.8125 C 2.328125 -4.90625 1.4375 -7.785156 1.4375 -11.453125 L 1.4375 -12.9375 C 1.4375 -15.269531 1.847656 -17.328125 2.671875 -19.109375 C 3.492188 -20.890625 4.671875 -22.253906 6.203125 -23.203125 C 7.734375 -24.160156 9.507812 -24.640625 11.53125 -24.640625 C 14.332031 -24.640625 16.59375 -23.882812 18.3125 -22.375 C 20.03125 -20.875 21.019531 -18.769531 21.28125 -16.0625 L 16.28125 -16.0625 C 16.15625 -17.625 15.71875 -18.757812 14.96875 -19.46875 C 14.21875 -20.175781 13.070312 -20.53125 11.53125 -20.53125 C 9.863281 -20.53125 8.613281 -19.929688 7.78125 -18.734375 C 6.957031 -17.535156 6.535156 -15.679688 6.515625 -13.171875 L 6.515625 -11.328125 C 6.515625 -8.703125 6.910156 -6.78125 7.703125 -5.5625 C 8.492188 -4.351562 9.75 -3.75 11.46875 -3.75 C 13.007812 -3.75 14.160156 -4.101562 14.921875 -4.8125 C 15.691406 -5.519531 16.132812 -6.613281 16.25 -8.09375 Z M 21.25 -8.09375 "/></g></g></g><g fill="#64ebb6" fill-opacity="1"><g transform="translate(209.076582, 99.023797)"><g><path d="M 1.109375 -9.203125 C 1.109375 -10.992188 1.453125 -12.585938 2.140625 -13.984375 C 2.828125 -15.390625 3.816406 -16.472656 5.109375 -17.234375 C 6.410156 -18.003906 7.914062 -18.390625 9.625 -18.390625 C 12.0625 -18.390625 14.050781 -17.644531 15.59375 -16.15625 C 17.132812 -14.664062 17.992188 -12.640625 18.171875 -10.078125 L 18.21875 -8.84375 C 18.21875 -6.070312 17.441406 -3.847656 15.890625 -2.171875 C 14.347656 -0.503906 12.273438 0.328125 9.671875 0.328125 C 7.066406 0.328125 4.988281 -0.503906 3.4375 -2.171875 C 1.882812 -3.835938 1.109375 -6.109375 1.109375 -8.984375 Z M 5.921875 -8.84375 C 5.921875 -7.132812 6.242188 -5.828125 6.890625 -4.921875 C 7.535156 -4.015625 8.460938 -3.5625 9.671875 -3.5625 C 10.835938 -3.5625 11.75 -4.007812 12.40625 -4.90625 C 13.0625 -5.800781 13.390625 -7.234375 13.390625 -9.203125 C 13.390625 -10.878906 13.0625 -12.175781 12.40625 -13.09375 C 11.75 -14.019531 10.820312 -14.484375 9.625 -14.484375 C 8.445312 -14.484375 7.535156 -14.023438 6.890625 -13.109375 C 6.242188 -12.191406 5.921875 -10.769531 5.921875 -8.84375 Z M 5.921875 -8.84375 "/></g></g></g><g fill="#64ebb6" fill-opacity="1"><g transform="translate(228.408047, 99.023797)"><g><path d="M 6.296875 -18.0625 L 6.4375 -15.96875 C 7.726562 -17.582031 9.460938 -18.390625 11.640625 -18.390625 C 13.546875 -18.390625 14.96875 -17.828125 15.90625 -16.703125 C 16.84375 -15.585938 17.320312 -13.910156 17.34375 -11.671875 L 17.34375 0 L 12.515625 0 L 12.515625 -11.546875 C 12.515625 -12.578125 12.289062 -13.320312 11.84375 -13.78125 C 11.40625 -14.238281 10.664062 -14.46875 9.625 -14.46875 C 8.269531 -14.46875 7.253906 -13.890625 6.578125 -12.734375 L 6.578125 0 L 1.75 0 L 1.75 -18.0625 Z M 6.296875 -18.0625 "/></g></g></g><g fill="#64ebb6" fill-opacity="1"><g transform="translate(247.555879, 99.023797)"><g><path d="M 7.625 -22.5 L 7.625 -18.0625 L 10.71875 -18.0625 L 10.71875 -14.515625 L 7.625 -14.515625 L 7.625 -5.515625 C 7.625 -4.835938 7.75 -4.351562 8 -4.0625 C 8.257812 -3.78125 8.753906 -3.640625 9.484375 -3.640625 C 10.015625 -3.640625 10.488281 -3.675781 10.90625 -3.75 L 10.90625 -0.09375 C 9.957031 0.1875 8.984375 0.328125 7.984375 0.328125 C 4.597656 0.328125 2.867188 -1.378906 2.796875 -4.796875 L 2.796875 -14.515625 L 0.171875 -14.515625 L 0.171875 -18.0625 L 2.796875 -18.0625 L 2.796875 -22.5 Z M 7.625 -22.5 "/></g></g></g><g fill="#64ebb6" fill-opacity="1"><g transform="translate(259.108015, 99.023797)"><g><path d="M 12 -13.53125 C 11.34375 -13.625 10.765625 -13.671875 10.265625 -13.671875 C 8.441406 -13.671875 7.242188 -13.050781 6.671875 -11.8125 L 6.671875 0 L 1.859375 0 L 1.859375 -18.0625 L 6.40625 -18.0625 L 6.546875 -15.90625 C 7.515625 -17.5625 8.851562 -18.390625 10.5625 -18.390625 C 11.101562 -18.390625 11.601562 -18.316406 12.0625 -18.171875 Z M 12 -13.53125 "/></g></g></g><g fill="#64ebb6" fill-opacity="1"><g transform="translate(271.578312, 99.023797)"><g><path d="M 1.109375 -9.203125 C 1.109375 -10.992188 1.453125 -12.585938 2.140625 -13.984375 C 2.828125 -15.390625 3.816406 -16.472656 5.109375 -17.234375 C 6.410156 -18.003906 7.914062 -18.390625 9.625 -18.390625 C 12.0625 -18.390625 14.050781 -17.644531 15.59375 -16.15625 C 17.132812 -14.664062 17.992188 -12.640625 18.171875 -10.078125 L 18.21875 -8.84375 C 18.21875 -6.070312 17.441406 -3.847656 15.890625 -2.171875 C 14.347656 -0.503906 12.273438 0.328125 9.671875 0.328125 C 7.066406 0.328125 4.988281 -0.503906 3.4375 -2.171875 C 1.882812 -3.835938 1.109375 -6.109375 1.109375 -8.984375 Z M 5.921875 -8.84375 C 5.921875 -7.132812 6.242188 -5.828125 6.890625 -4.921875 C 7.535156 -4.015625 8.460938 -3.5625 9.671875 -3.5625 C 10.835938 -3.5625 11.75 -4.007812 12.40625 -4.90625 C 13.0625 -5.800781 13.390625 -7.234375 13.390625 -9.203125 C 13.390625 -10.878906 13.0625 -12.175781 12.40625 -13.09375 C 11.75 -14.019531 10.820312 -14.484375 9.625 -14.484375 C 8.445312 -14.484375 7.535156 -14.023438 6.890625 -13.109375 C 6.242188 -12.191406 5.921875 -10.769531 5.921875 -8.84375 Z M 5.921875 -8.84375 "/></g></g></g><g fill="#64ebb6" fill-opacity="1"><g transform="translate(290.909776, 99.023797)"><g><path d="M 6.9375 0 L 2.109375 0 L 2.109375 -25.640625 L 6.9375 -25.640625 Z M 6.9375 0 "/></g></g></g><g clip-path="url(#c7e244e0dd)"><g clip-path="url(#31f63312a5)"><path fill="#64ebb6" d="M 70.335938 68.964844 L 113.265625 68.964844 L 113.265625 106.65625 L 70.335938 106.65625 Z M 70.335938 68.964844 " fill-opacity="1" fill-rule="nonzero"/></g></g><g mask="url(#ade8d68bba)"><g transform="matrix(1, 0, 0, 1, 74, 76)"><g clip-path="url(#099b17684b)"><g clip-path="url(#14342f7822)"><g clip-path="url(#1a17881031)"><path fill="#1b9ce4" d="M 0.722656 0.660156 L 34.886719 0.660156 L 34.886719 30.65625 L 0.722656 30.65625 Z M 0.722656 0.660156 " fill-opacity="1" fill-rule="nonzero"/></g></g></g></g></g><g clip-path="url(#7d574a46f7)"><g clip-path="url(#2d8c0901f0)"><path fill="#ffffff" d="M 70.335938 83.308594 L 93.683594 83.308594 L 93.683594 106.65625 L 70.335938 106.65625 Z M 70.335938 83.308594 " fill-opacity="1" fill-rule="nonzero"/></g></g></svg>