<svg xmlns="http://www.w3.org/2000/svg" xmlns:xlink="http://www.w3.org/1999/xlink" width="700" zoomAndPan="magnify" viewBox="0 0 525 225" height="300" preserveAspectRatio="xMidYMid meet" version="1.0"><defs><filter x="0%" y="0%" width="100%" height="100%" id="fc8a63c0a4"><feColorMatrix values="0 0 0 0 1 0 0 0 0 1 0 0 0 0 1 0 0 0 1 0" color-interpolation-filters="sRGB"/></filter><g/><clipPath id="9bb12ebc43"><path d="M 1.144531 22.5 L 208.589844 22.5 L 208.589844 204.269531 L 1.144531 204.269531 Z M 1.144531 22.5 " clip-rule="nonzero"/></clipPath><clipPath id="8c45e47abf"><path d="M 1.144531 76.128906 C 1.144531 133.859375 104.753906 204.269531 104.753906 204.269531 C 104.753906 204.269531 207.910156 133.363281 208.363281 76.128906 C 208.363281 46.578125 184.285156 22.5 154.734375 22.5 C 132.023438 22.5 112.464844 37.046875 104.753906 57.023438 C 97.046875 37.046875 77.484375 22.5 54.773438 22.5 C 25.226562 22.5 1.144531 46.578125 1.144531 76.128906 " clip-rule="nonzero"/></clipPath><mask id="03135e554b"><g filter="url(#fc8a63c0a4)"><rect x="-52.5" width="630" fill="#000000" y="-22.5" height="270" fill-opacity="0.82"/></g></mask><clipPath id="8c46d6ffd3"><path d="M 0.296875 0.609375 L 165.390625 0.609375 L 165.390625 145.269531 L 0.296875 145.269531 Z M 0.296875 0.609375 " clip-rule="nonzero"/></clipPath><clipPath id="bc6dc315aa"><path d="M 0.296875 43.289062 C 0.296875 89.234375 82.753906 145.269531 82.753906 145.269531 C 82.753906 145.269531 164.847656 88.839844 165.210938 43.289062 C 165.210938 19.773438 146.050781 0.609375 122.53125 0.609375 C 104.457031 0.609375 88.890625 12.1875 82.753906 28.085938 C 76.621094 12.1875 61.050781 0.609375 42.976562 0.609375 C 19.460938 0.609375 0.296875 19.773438 0.296875 43.289062 " clip-rule="nonzero"/></clipPath><clipPath id="d0cd37f58d"><rect x="0" width="166" y="0" height="146"/></clipPath><clipPath id="c6434d1f91"><path d="M 1.144531 91.6875 L 113.730469 91.6875 L 113.730469 204.269531 L 1.144531 204.269531 Z M 1.144531 91.6875 " clip-rule="nonzero"/></clipPath><clipPath id="bd1d3b3a05"><path d="M 76.296875 91.6875 L 38.578125 91.6875 C 37.335938 91.6875 36.328125 92.695312 36.328125 93.9375 L 36.328125 124.621094 C 36.328125 125.863281 35.320312 126.871094 34.078125 126.871094 L 3.394531 126.871094 C 2.152344 126.871094 1.144531 127.878906 1.144531 129.121094 L 1.144531 166.839844 C 1.144531 168.082031 2.152344 169.089844 3.394531 169.089844 L 34.078125 169.089844 C 35.320312 169.089844 36.328125 170.097656 36.328125 171.339844 L 36.328125 202.019531 C 36.328125 203.265625 37.335938 204.269531 38.578125 204.269531 L 76.296875 204.269531 C 77.539062 204.269531 78.546875 203.265625 78.546875 202.019531 L 78.546875 171.339844 C 78.546875 170.097656 79.554688 169.089844 80.796875 169.089844 L 111.480469 169.089844 C 112.722656 169.089844 113.730469 168.082031 113.730469 166.839844 L 113.730469 129.121094 C 113.730469 127.878906 112.722656 126.871094 111.480469 126.871094 L 80.796875 126.871094 C 79.554688 126.871094 78.546875 125.863281 78.546875 124.621094 L 78.546875 93.9375 C 78.546875 92.695312 77.539062 91.6875 76.296875 91.6875 Z M 76.296875 91.6875 " clip-rule="nonzero"/></clipPath></defs><g clip-path="url(#9bb12ebc43)"><g clip-path="url(#8c45e47abf)"><path fill="#64ebb6" d="M 1.144531 22.5 L 208.175781 22.5 L 208.175781 204.269531 L 1.144531 204.269531 Z M 1.144531 22.5 " fill-opacity="1" fill-rule="nonzero"/></g></g><g mask="url(#03135e554b)"><g transform="matrix(1, 0, 0, 1, 22, 59)"><g clip-path="url(#d0cd37f58d)"><g clip-path="url(#8c46d6ffd3)"><g clip-path="url(#bc6dc315aa)"><path fill="#1b9ce4" d="M 0.296875 0.609375 L 165.0625 0.609375 L 165.0625 145.269531 L 0.296875 145.269531 Z M 0.296875 0.609375 " fill-opacity="1" fill-rule="nonzero"/></g></g></g></g></g><g clip-path="url(#c6434d1f91)"><g clip-path="url(#bd1d3b3a05)"><path fill="#ffffff" d="M 1.144531 91.6875 L 113.730469 91.6875 L 113.730469 204.269531 L 1.144531 204.269531 Z M 1.144531 91.6875 " fill-opacity="1" fill-rule="nonzero"/></g></g><g fill="#1b9ce4" fill-opacity="1"><g transform="translate(204.461975, 130.076657)"><g><path d="M 3.828125 0 L 3.828125 -42.890625 L 17.03125 -42.890625 C 20.800781 -42.890625 24.171875 -42.039062 27.140625 -40.34375 C 30.117188 -38.644531 32.441406 -36.226562 34.109375 -33.09375 C 35.773438 -29.957031 36.609375 -26.398438 36.609375 -22.421875 L 36.609375 -20.4375 C 36.609375 -16.457031 35.789062 -12.914062 34.15625 -9.8125 C 32.519531 -6.707031 30.207031 -4.300781 27.21875 -2.59375 C 24.226562 -0.882812 20.859375 -0.0195312 17.109375 0 Z M 12.671875 -35.734375 L 12.671875 -7.09375 L 16.9375 -7.09375 C 20.394531 -7.09375 23.035156 -8.222656 24.859375 -10.484375 C 26.679688 -12.742188 27.613281 -15.972656 27.65625 -20.171875 L 27.65625 -22.453125 C 27.65625 -26.804688 26.75 -30.109375 24.9375 -32.359375 C 23.132812 -34.609375 20.5 -35.734375 17.03125 -35.734375 Z M 12.671875 -35.734375 "/></g></g></g><g fill="#1b9ce4" fill-opacity="1"><g transform="translate(243.661753, 130.076657)"><g><path d="M 12.25 0 L 3.71875 0 L 3.71875 -31.875 L 12.25 -31.875 Z M 3.203125 -40.125 C 3.203125 -41.394531 3.628906 -42.441406 4.484375 -43.265625 C 5.347656 -44.097656 6.515625 -44.515625 7.984375 -44.515625 C 9.429688 -44.515625 10.585938 -44.097656 11.453125 -43.265625 C 12.316406 -42.441406 12.75 -41.394531 12.75 -40.125 C 12.75 -38.820312 12.3125 -37.757812 11.4375 -36.9375 C 10.570312 -36.113281 9.421875 -35.703125 7.984375 -35.703125 C 6.546875 -35.703125 5.390625 -36.113281 4.515625 -36.9375 C 3.640625 -37.757812 3.203125 -38.820312 3.203125 -40.125 Z M 3.203125 -40.125 "/></g></g></g><g fill="#1b9ce4" fill-opacity="1"><g transform="translate(259.653852, 130.076657)"><g><path d="M 21.734375 0 C 21.347656 -0.769531 21.066406 -1.722656 20.890625 -2.859375 C 18.828125 -0.554688 16.144531 0.59375 12.84375 0.59375 C 9.71875 0.59375 7.128906 -0.304688 5.078125 -2.109375 C 3.023438 -3.921875 2 -6.203125 2 -8.953125 C 2 -12.328125 3.25 -14.914062 5.75 -16.71875 C 8.257812 -18.53125 11.878906 -19.445312 16.609375 -19.46875 L 20.53125 -19.46875 L 20.53125 -21.296875 C 20.53125 -22.765625 20.148438 -23.941406 19.390625 -24.828125 C 18.640625 -25.710938 17.445312 -26.15625 15.8125 -26.15625 C 14.382812 -26.15625 13.257812 -25.8125 12.4375 -25.125 C 11.625 -24.4375 11.21875 -23.492188 11.21875 -22.296875 L 2.703125 -22.296875 C 2.703125 -24.140625 3.269531 -25.847656 4.40625 -27.421875 C 5.550781 -28.992188 7.164062 -30.226562 9.25 -31.125 C 11.332031 -32.019531 13.671875 -32.46875 16.265625 -32.46875 C 20.191406 -32.46875 23.304688 -31.476562 25.609375 -29.5 C 27.921875 -27.53125 29.078125 -24.753906 29.078125 -21.171875 L 29.078125 -7.359375 C 29.097656 -4.335938 29.519531 -2.050781 30.34375 -0.5 L 30.34375 0 Z M 14.703125 -5.921875 C 15.953125 -5.921875 17.109375 -6.195312 18.171875 -6.75 C 19.234375 -7.3125 20.019531 -8.066406 20.53125 -9.015625 L 20.53125 -14.5 L 17.34375 -14.5 C 13.082031 -14.5 10.816406 -13.023438 10.546875 -10.078125 L 10.515625 -9.578125 C 10.515625 -8.515625 10.882812 -7.640625 11.625 -6.953125 C 12.375 -6.265625 13.398438 -5.921875 14.703125 -5.921875 Z M 14.703125 -5.921875 "/></g></g></g><g fill="#1b9ce4" fill-opacity="1"><g transform="translate(291.991455, 130.076657)"><g><path d="M 31.984375 -15.640625 C 31.984375 -10.535156 30.894531 -6.550781 28.71875 -3.6875 C 26.539062 -0.832031 23.5 0.59375 19.59375 0.59375 C 16.132812 0.59375 13.375 -0.734375 11.3125 -3.390625 L 10.921875 0 L 3.265625 0 L 3.265625 -45.25 L 11.78125 -45.25 L 11.78125 -29.015625 C 13.75 -31.316406 16.332031 -32.46875 19.53125 -32.46875 C 23.414062 -32.46875 26.460938 -31.035156 28.671875 -28.171875 C 30.878906 -25.316406 31.984375 -21.296875 31.984375 -16.109375 Z M 23.484375 -16.265625 C 23.484375 -19.484375 22.96875 -21.832031 21.9375 -23.3125 C 20.914062 -24.800781 19.394531 -25.546875 17.375 -25.546875 C 14.664062 -25.546875 12.800781 -24.429688 11.78125 -22.203125 L 11.78125 -9.625 C 12.820312 -7.394531 14.707031 -6.28125 17.4375 -6.28125 C 20.1875 -6.28125 21.992188 -7.632812 22.859375 -10.34375 C 23.273438 -11.632812 23.484375 -13.609375 23.484375 -16.265625 Z M 23.484375 -16.265625 "/></g></g></g><g fill="#64ebb6" fill-opacity="1"><g transform="translate(325.950251, 130.076657)"><g><path d="M 37.5 -14.28125 C 37.164062 -9.664062 35.460938 -6.03125 32.390625 -3.375 C 29.316406 -0.726562 25.265625 0.59375 20.234375 0.59375 C 14.734375 0.59375 10.40625 -1.253906 7.25 -4.953125 C 4.101562 -8.660156 2.53125 -13.742188 2.53125 -20.203125 L 2.53125 -22.828125 C 2.53125 -26.953125 3.253906 -30.582031 4.703125 -33.71875 C 6.160156 -36.863281 8.238281 -39.273438 10.9375 -40.953125 C 13.644531 -42.640625 16.785156 -43.484375 20.359375 -43.484375 C 25.304688 -43.484375 29.289062 -42.15625 32.3125 -39.5 C 35.332031 -36.851562 37.082031 -33.132812 37.5625 -28.34375 L 28.71875 -28.34375 C 28.5 -31.101562 27.726562 -33.109375 26.40625 -34.359375 C 25.082031 -35.609375 23.066406 -36.234375 20.359375 -36.234375 C 17.410156 -36.234375 15.203125 -35.175781 13.734375 -33.0625 C 12.273438 -30.957031 11.523438 -27.679688 11.484375 -23.234375 L 11.484375 -20 C 11.484375 -15.363281 12.1875 -11.972656 13.59375 -9.828125 C 15 -7.691406 17.210938 -6.625 20.234375 -6.625 C 22.960938 -6.625 25 -7.25 26.34375 -8.5 C 27.6875 -9.75 28.457031 -11.675781 28.65625 -14.28125 Z M 37.5 -14.28125 "/></g></g></g><g fill="#64ebb6" fill-opacity="1"><g transform="translate(365.415085, 130.076657)"><g><path d="M 1.9375 -16.234375 C 1.9375 -19.390625 2.546875 -22.203125 3.765625 -24.671875 C 4.984375 -27.148438 6.734375 -29.066406 9.015625 -30.421875 C 11.304688 -31.785156 13.96875 -32.46875 17 -32.46875 C 21.300781 -32.46875 24.8125 -31.148438 27.53125 -28.515625 C 30.25 -25.878906 31.765625 -22.304688 32.078125 -17.796875 L 32.140625 -15.609375 C 32.140625 -10.722656 30.773438 -6.800781 28.046875 -3.84375 C 25.316406 -0.882812 21.648438 0.59375 17.046875 0.59375 C 12.453125 0.59375 8.785156 -0.878906 6.046875 -3.828125 C 3.304688 -6.773438 1.9375 -10.78125 1.9375 -15.84375 Z M 10.453125 -15.609375 C 10.453125 -12.585938 11.019531 -10.273438 12.15625 -8.671875 C 13.300781 -7.078125 14.9375 -6.28125 17.0625 -6.28125 C 19.125 -6.28125 20.734375 -7.066406 21.890625 -8.640625 C 23.046875 -10.222656 23.625 -12.753906 23.625 -16.234375 C 23.625 -19.191406 23.046875 -21.484375 21.890625 -23.109375 C 20.734375 -24.742188 19.101562 -25.5625 17 -25.5625 C 14.914062 -25.5625 13.300781 -24.75 12.15625 -23.125 C 11.019531 -21.507812 10.453125 -19.003906 10.453125 -15.609375 Z M 10.453125 -15.609375 "/></g></g></g><g fill="#64ebb6" fill-opacity="1"><g transform="translate(399.519771, 130.076657)"><g><path d="M 11.109375 -31.875 L 11.375 -28.1875 C 13.644531 -31.039062 16.695312 -32.46875 20.53125 -32.46875 C 23.90625 -32.46875 26.414062 -31.472656 28.0625 -29.484375 C 29.71875 -27.503906 30.566406 -24.539062 30.609375 -20.59375 L 30.609375 0 L 22.09375 0 L 22.09375 -20.390625 C 22.09375 -22.191406 21.695312 -23.5 20.90625 -24.3125 C 20.125 -25.132812 18.820312 -25.546875 17 -25.546875 C 14.601562 -25.546875 12.804688 -24.519531 11.609375 -22.46875 L 11.609375 0 L 3.09375 0 L 3.09375 -31.875 Z M 11.109375 -31.875 "/></g></g></g><g fill="#64ebb6" fill-opacity="1"><g transform="translate(433.300497, 130.076657)"><g><path d="M 13.46875 -39.703125 L 13.46875 -31.875 L 18.90625 -31.875 L 18.90625 -25.625 L 13.46875 -25.625 L 13.46875 -9.71875 C 13.46875 -8.539062 13.691406 -7.695312 14.140625 -7.1875 C 14.585938 -6.675781 15.453125 -6.421875 16.734375 -6.421875 C 17.671875 -6.421875 18.503906 -6.488281 19.234375 -6.625 L 19.234375 -0.171875 C 17.566406 0.335938 15.847656 0.59375 14.078125 0.59375 C 8.109375 0.59375 5.066406 -2.421875 4.953125 -8.453125 L 4.953125 -25.625 L 0.296875 -25.625 L 0.296875 -31.875 L 4.953125 -31.875 L 4.953125 -39.703125 Z M 13.46875 -39.703125 "/></g></g></g><g fill="#64ebb6" fill-opacity="1"><g transform="translate(453.680844, 130.076657)"><g><path d="M 21.171875 -23.890625 C 20.015625 -24.046875 18.992188 -24.125 18.109375 -24.125 C 14.890625 -24.125 12.78125 -23.035156 11.78125 -20.859375 L 11.78125 0 L 3.265625 0 L 3.265625 -31.875 L 11.3125 -31.875 L 11.546875 -28.078125 C 13.253906 -31.003906 15.617188 -32.46875 18.640625 -32.46875 C 19.585938 -32.46875 20.472656 -32.335938 21.296875 -32.078125 Z M 21.171875 -23.890625 "/></g></g></g><g fill="#64ebb6" fill-opacity="1"><g transform="translate(475.681022, 130.076657)"><g><path d="M 1.9375 -16.234375 C 1.9375 -19.390625 2.546875 -22.203125 3.765625 -24.671875 C 4.984375 -27.148438 6.734375 -29.066406 9.015625 -30.421875 C 11.304688 -31.785156 13.96875 -32.46875 17 -32.46875 C 21.300781 -32.46875 24.8125 -31.148438 27.53125 -28.515625 C 30.25 -25.878906 31.765625 -22.304688 32.078125 -17.796875 L 32.140625 -15.609375 C 32.140625 -10.722656 30.773438 -6.800781 28.046875 -3.84375 C 25.316406 -0.882812 21.648438 0.59375 17.046875 0.59375 C 12.453125 0.59375 8.785156 -0.878906 6.046875 -3.828125 C 3.304688 -6.773438 1.9375 -10.78125 1.9375 -15.84375 Z M 10.453125 -15.609375 C 10.453125 -12.585938 11.019531 -10.273438 12.15625 -8.671875 C 13.300781 -7.078125 14.9375 -6.28125 17.0625 -6.28125 C 19.125 -6.28125 20.734375 -7.066406 21.890625 -8.640625 C 23.046875 -10.222656 23.625 -12.753906 23.625 -16.234375 C 23.625 -19.191406 23.046875 -21.484375 21.890625 -23.109375 C 20.734375 -24.742188 19.101562 -25.5625 17 -25.5625 C 14.914062 -25.5625 13.300781 -24.75 12.15625 -23.125 C 11.019531 -21.507812 10.453125 -19.003906 10.453125 -15.609375 Z M 10.453125 -15.609375 "/></g></g></g><g fill="#64ebb6" fill-opacity="1"><g transform="translate(509.785708, 130.076657)"><g><path d="M 12.25 0 L 3.71875 0 L 3.71875 -45.25 L 12.25 -45.25 Z M 12.25 0 "/></g></g></g></svg>