<svg xmlns="http://www.w3.org/2000/svg" xmlns:xlink="http://www.w3.org/1999/xlink" width="500" zoomAndPan="magnify" viewBox="0 0 375 374.999991" height="500" preserveAspectRatio="xMidYMid meet" version="1.0"><defs><filter x="0%" y="0%" width="100%" height="100%" id="a4073f41ca"><feColorMatrix values="0 0 0 0 1 0 0 0 0 1 0 0 0 0 1 0 0 0 1 0" color-interpolation-filters="sRGB"/></filter><g/><clipPath id="61d553bdb7"><path d="M 64.160156 37.5 L 311 37.5 L 311 253.890625 L 64.160156 253.890625 Z M 64.160156 37.5 " clip-rule="nonzero"/></clipPath><clipPath id="95f3ed4f9e"><path d="M 64.160156 101.339844 C 64.160156 170.066406 187.5 253.890625 187.5 253.890625 C 187.5 253.890625 310.300781 169.476562 310.839844 101.339844 C 310.839844 66.164062 282.175781 37.5 247 37.5 C 219.964844 37.5 196.675781 54.816406 187.5 78.597656 C 178.324219 54.816406 155.035156 37.5 128 37.5 C 92.824219 37.5 64.160156 66.164062 64.160156 101.339844 " clip-rule="nonzero"/></clipPath><mask id="3244634b89"><g filter="url(#a4073f41ca)"><rect x="-37.5" width="450" fill="#000000" y="-37.499999" height="449.999989" fill-opacity="0.82"/></g></mask><clipPath id="32d349068e"><path d="M 0.339844 0.675781 L 196.875 0.675781 L 196.875 172.890625 L 0.339844 172.890625 Z M 0.339844 0.675781 " clip-rule="nonzero"/></clipPath><clipPath id="414d57fda3"><path d="M 0.339844 51.484375 C 0.339844 106.179688 98.5 172.890625 98.5 172.890625 C 98.5 172.890625 196.230469 105.710938 196.660156 51.484375 C 196.660156 23.488281 173.847656 0.675781 145.851562 0.675781 C 124.335938 0.675781 105.804688 14.457031 98.5 33.382812 C 91.195312 14.457031 72.664062 0.675781 51.148438 0.675781 C 23.152344 0.675781 0.339844 23.488281 0.339844 51.484375 " clip-rule="nonzero"/></clipPath><clipPath id="61128f2de9"><rect x="0" width="198" y="0" height="173"/></clipPath><clipPath id="e16ad09a82"><path d="M 64.160156 119.863281 L 198.183594 119.863281 L 198.183594 253.890625 L 64.160156 253.890625 Z M 64.160156 119.863281 " clip-rule="nonzero"/></clipPath><clipPath id="ad9c8d708c"><path d="M 152.550781 119.863281 L 109.792969 119.863281 C 107.71875 119.863281 106.042969 121.542969 106.042969 123.613281 L 106.042969 157.996094 C 106.042969 160.070312 104.363281 161.746094 102.292969 161.746094 L 67.910156 161.746094 C 65.835938 161.746094 64.160156 163.425781 64.160156 165.496094 L 64.160156 208.257812 C 64.160156 210.328125 65.835938 212.007812 67.910156 212.007812 L 102.292969 212.007812 C 104.363281 212.007812 106.042969 213.6875 106.042969 215.757812 L 106.042969 250.140625 C 106.042969 252.210938 107.71875 253.890625 109.792969 253.890625 L 152.550781 253.890625 C 154.621094 253.890625 156.300781 252.210938 156.300781 250.140625 L 156.300781 215.757812 C 156.300781 213.6875 157.980469 212.007812 160.050781 212.007812 L 194.433594 212.007812 C 196.503906 212.007812 198.183594 210.328125 198.183594 208.257812 L 198.183594 165.496094 C 198.183594 163.425781 196.503906 161.746094 194.433594 161.746094 L 160.050781 161.746094 C 157.980469 161.746094 156.300781 160.070312 156.300781 157.996094 L 156.300781 123.613281 C 156.300781 121.542969 154.621094 119.863281 152.550781 119.863281 Z M 152.550781 119.863281 " clip-rule="nonzero"/></clipPath></defs><g clip-path="url(#61d553bdb7)"><g clip-path="url(#95f3ed4f9e)"><path fill="#64ebb6" d="M 64.160156 37.5 L 310.617188 37.5 L 310.617188 253.890625 L 64.160156 253.890625 Z M 64.160156 37.5 " fill-opacity="1" fill-rule="nonzero"/></g></g><g mask="url(#3244634b89)"><g transform="matrix(1, 0, 0, 1, 89, 81)"><g clip-path="url(#61128f2de9)"><g clip-path="url(#32d349068e)"><g clip-path="url(#414d57fda3)"><path fill="#1b9ce4" d="M 0.339844 0.675781 L 196.480469 0.675781 L 196.480469 172.890625 L 0.339844 172.890625 Z M 0.339844 0.675781 " fill-opacity="1" fill-rule="nonzero"/></g></g></g></g></g><g clip-path="url(#e16ad09a82)"><g clip-path="url(#ad9c8d708c)"><path fill="#ffffff" d="M 64.160156 119.863281 L 198.183594 119.863281 L 198.183594 253.890625 L 64.160156 253.890625 Z M 64.160156 119.863281 " fill-opacity="1" fill-rule="nonzero"/></g></g><g fill="#1b9ce4" fill-opacity="1"><g transform="translate(3.550096, 329.002507)"><g><path d="M 4.390625 0 L 4.390625 -49.09375 L 19.484375 -49.09375 C 23.804688 -49.09375 27.671875 -48.117188 31.078125 -46.171875 C 34.484375 -44.234375 37.140625 -41.472656 39.046875 -37.890625 C 40.960938 -34.304688 41.921875 -30.226562 41.921875 -25.65625 L 41.921875 -23.40625 C 41.921875 -18.84375 40.976562 -14.785156 39.09375 -11.234375 C 37.21875 -7.679688 34.570312 -4.925781 31.15625 -2.96875 C 27.738281 -1.007812 23.882812 -0.0195312 19.59375 0 Z M 14.5 -40.90625 L 14.5 -8.125 L 19.390625 -8.125 C 23.347656 -8.125 26.367188 -9.414062 28.453125 -12 C 30.546875 -14.59375 31.617188 -18.289062 31.671875 -23.09375 L 31.671875 -25.703125 C 31.671875 -30.691406 30.632812 -34.472656 28.5625 -37.046875 C 26.488281 -39.617188 23.460938 -40.90625 19.484375 -40.90625 Z M 14.5 -40.90625 "/></g></g></g><g fill="#1b9ce4" fill-opacity="1"><g transform="translate(48.431441, 329.002507)"><g><path d="M 14.03125 0 L 4.25 0 L 4.25 -36.484375 L 14.03125 -36.484375 Z M 3.671875 -45.921875 C 3.671875 -47.390625 4.160156 -48.59375 5.140625 -49.53125 C 6.117188 -50.476562 7.453125 -50.953125 9.140625 -50.953125 C 10.804688 -50.953125 12.132812 -50.476562 13.125 -49.53125 C 14.113281 -48.59375 14.609375 -47.390625 14.609375 -45.921875 C 14.609375 -44.441406 14.101562 -43.226562 13.09375 -42.28125 C 12.09375 -41.34375 10.769531 -40.875 9.125 -40.875 C 7.488281 -40.875 6.171875 -41.34375 5.171875 -42.28125 C 4.171875 -43.226562 3.671875 -44.441406 3.671875 -45.921875 Z M 3.671875 -45.921875 "/></g></g></g><g fill="#1b9ce4" fill-opacity="1"><g transform="translate(66.741415, 329.002507)"><g><path d="M 24.890625 0 C 24.441406 -0.875 24.113281 -1.960938 23.90625 -3.265625 C 21.550781 -0.640625 18.484375 0.671875 14.703125 0.671875 C 11.128906 0.671875 8.164062 -0.359375 5.8125 -2.421875 C 3.46875 -4.492188 2.296875 -7.101562 2.296875 -10.25 C 2.296875 -14.113281 3.726562 -17.078125 6.59375 -19.140625 C 9.457031 -21.210938 13.597656 -22.265625 19.015625 -22.296875 L 23.5 -22.296875 L 23.5 -24.375 C 23.5 -26.0625 23.066406 -27.410156 22.203125 -28.421875 C 21.335938 -29.429688 19.972656 -29.9375 18.109375 -29.9375 C 16.460938 -29.9375 15.171875 -29.539062 14.234375 -28.75 C 13.304688 -27.96875 12.84375 -26.894531 12.84375 -25.53125 L 3.109375 -25.53125 C 3.109375 -27.644531 3.757812 -29.597656 5.0625 -31.390625 C 6.363281 -33.191406 8.203125 -34.601562 10.578125 -35.625 C 12.960938 -36.644531 15.640625 -37.15625 18.609375 -37.15625 C 23.109375 -37.15625 26.675781 -36.023438 29.3125 -33.765625 C 31.957031 -31.515625 33.28125 -28.34375 33.28125 -24.25 L 33.28125 -8.4375 C 33.300781 -4.96875 33.785156 -2.347656 34.734375 -0.578125 L 34.734375 0 Z M 16.828125 -6.78125 C 18.265625 -6.78125 19.585938 -7.097656 20.796875 -7.734375 C 22.015625 -8.378906 22.914062 -9.238281 23.5 -10.3125 L 23.5 -16.59375 L 19.859375 -16.59375 C 14.984375 -16.59375 12.390625 -14.90625 12.078125 -11.53125 L 12.03125 -10.953125 C 12.03125 -9.742188 12.457031 -8.742188 13.3125 -7.953125 C 14.175781 -7.171875 15.347656 -6.78125 16.828125 -6.78125 Z M 16.828125 -6.78125 "/></g></g></g><g fill="#1b9ce4" fill-opacity="1"><g transform="translate(103.76599, 329.002507)"><g><path d="M 36.625 -17.90625 C 36.625 -12.0625 35.375 -7.503906 32.875 -4.234375 C 30.382812 -0.960938 26.898438 0.671875 22.421875 0.671875 C 18.460938 0.671875 15.304688 -0.84375 12.953125 -3.875 L 12.515625 0 L 3.75 0 L 3.75 -51.796875 L 13.484375 -51.796875 L 13.484375 -33.21875 C 15.734375 -35.84375 18.691406 -37.15625 22.359375 -37.15625 C 26.804688 -37.15625 30.296875 -35.519531 32.828125 -32.25 C 35.359375 -28.976562 36.625 -24.378906 36.625 -18.453125 Z M 26.875 -18.609375 C 26.875 -22.296875 26.289062 -24.988281 25.125 -26.6875 C 23.957031 -28.382812 22.210938 -29.234375 19.890625 -29.234375 C 16.796875 -29.234375 14.660156 -27.960938 13.484375 -25.421875 L 13.484375 -11.03125 C 14.679688 -8.46875 16.84375 -7.1875 19.96875 -7.1875 C 23.113281 -7.1875 25.179688 -8.738281 26.171875 -11.84375 C 26.640625 -13.320312 26.875 -15.578125 26.875 -18.609375 Z M 26.875 -18.609375 "/></g></g></g><g fill="#64ebb6" fill-opacity="1"><g transform="translate(142.651649, 329.002507)"><g><path d="M 42.921875 -16.359375 C 42.546875 -11.078125 40.597656 -6.914062 37.078125 -3.875 C 33.554688 -0.84375 28.921875 0.671875 23.171875 0.671875 C 16.867188 0.671875 11.914062 -1.441406 8.3125 -5.671875 C 4.707031 -9.910156 2.90625 -15.734375 2.90625 -23.140625 L 2.90625 -26.140625 C 2.90625 -30.859375 3.734375 -35.015625 5.390625 -38.609375 C 7.054688 -42.203125 9.4375 -44.960938 12.53125 -46.890625 C 15.625 -48.816406 19.210938 -49.78125 23.296875 -49.78125 C 28.960938 -49.78125 33.523438 -48.257812 36.984375 -45.21875 C 40.453125 -42.1875 42.457031 -37.925781 43 -32.4375 L 32.875 -32.4375 C 32.632812 -35.601562 31.753906 -37.898438 30.234375 -39.328125 C 28.710938 -40.765625 26.398438 -41.484375 23.296875 -41.484375 C 19.929688 -41.484375 17.410156 -40.273438 15.734375 -37.859375 C 14.054688 -35.441406 13.195312 -31.691406 13.15625 -26.609375 L 13.15625 -22.890625 C 13.15625 -17.585938 13.957031 -13.710938 15.5625 -11.265625 C 17.164062 -8.816406 19.703125 -7.59375 23.171875 -7.59375 C 26.296875 -7.59375 28.625 -8.304688 30.15625 -9.734375 C 31.695312 -11.160156 32.582031 -13.367188 32.8125 -16.359375 Z M 42.921875 -16.359375 "/></g></g></g><g fill="#64ebb6" fill-opacity="1"><g transform="translate(187.836468, 329.002507)"><g><path d="M 2.21875 -18.578125 C 2.21875 -22.203125 2.914062 -25.429688 4.3125 -28.265625 C 5.707031 -31.097656 7.710938 -33.285156 10.328125 -34.828125 C 12.953125 -36.378906 15.992188 -37.15625 19.453125 -37.15625 C 24.378906 -37.15625 28.398438 -35.648438 31.515625 -32.640625 C 34.628906 -29.628906 36.363281 -25.539062 36.71875 -20.375 L 36.796875 -17.875 C 36.796875 -12.269531 35.234375 -7.773438 32.109375 -4.390625 C 28.984375 -1.015625 24.789062 0.671875 19.53125 0.671875 C 14.269531 0.671875 10.066406 -1.007812 6.921875 -4.375 C 3.785156 -7.75 2.21875 -12.335938 2.21875 -18.140625 Z M 11.96875 -17.875 C 11.96875 -14.40625 12.617188 -11.753906 13.921875 -9.921875 C 15.234375 -8.097656 17.101562 -7.1875 19.53125 -7.1875 C 21.882812 -7.1875 23.722656 -8.085938 25.046875 -9.890625 C 26.378906 -11.703125 27.046875 -14.597656 27.046875 -18.578125 C 27.046875 -21.972656 26.378906 -24.601562 25.046875 -26.46875 C 23.722656 -28.332031 21.859375 -29.265625 19.453125 -29.265625 C 17.078125 -29.265625 15.234375 -28.335938 13.921875 -26.484375 C 12.617188 -24.628906 11.96875 -21.757812 11.96875 -17.875 Z M 11.96875 -17.875 "/></g></g></g><g fill="#64ebb6" fill-opacity="1"><g transform="translate(226.884244, 329.002507)"><g><path d="M 12.71875 -36.484375 L 13.015625 -32.265625 C 15.617188 -35.523438 19.113281 -37.15625 23.5 -37.15625 C 27.363281 -37.15625 30.238281 -36.019531 32.125 -33.75 C 34.019531 -31.476562 34.988281 -28.085938 35.03125 -23.578125 L 35.03125 0 L 25.296875 0 L 25.296875 -23.328125 C 25.296875 -25.398438 24.84375 -26.898438 23.9375 -27.828125 C 23.039062 -28.765625 21.546875 -29.234375 19.453125 -29.234375 C 16.710938 -29.234375 14.65625 -28.066406 13.28125 -25.734375 L 13.28125 0 L 3.546875 0 L 3.546875 -36.484375 Z M 12.71875 -36.484375 "/></g></g></g><g fill="#64ebb6" fill-opacity="1"><g transform="translate(265.561107, 329.002507)"><g><path d="M 15.40625 -45.453125 L 15.40625 -36.484375 L 21.65625 -36.484375 L 21.65625 -29.34375 L 15.40625 -29.34375 L 15.40625 -11.125 C 15.40625 -9.78125 15.664062 -8.8125 16.1875 -8.21875 C 16.707031 -7.632812 17.695312 -7.34375 19.15625 -7.34375 C 20.226562 -7.34375 21.179688 -7.425781 22.015625 -7.59375 L 22.015625 -0.203125 C 20.109375 0.378906 18.144531 0.671875 16.125 0.671875 C 9.289062 0.671875 5.804688 -2.773438 5.671875 -9.671875 L 5.671875 -29.34375 L 0.34375 -29.34375 L 0.34375 -36.484375 L 5.671875 -36.484375 L 5.671875 -45.453125 Z M 15.40625 -45.453125 "/></g></g></g><g fill="#64ebb6" fill-opacity="1"><g transform="translate(288.895356, 329.002507)"><g><path d="M 24.25 -27.34375 C 22.914062 -27.53125 21.742188 -27.625 20.734375 -27.625 C 17.046875 -27.625 14.628906 -26.375 13.484375 -23.875 L 13.484375 0 L 3.75 0 L 3.75 -36.484375 L 12.953125 -36.484375 L 13.21875 -32.140625 C 15.175781 -35.484375 17.882812 -37.15625 21.34375 -37.15625 C 22.425781 -37.15625 23.4375 -37.007812 24.375 -36.71875 Z M 24.25 -27.34375 "/></g></g></g><g fill="#64ebb6" fill-opacity="1"><g transform="translate(314.084213, 329.002507)"><g><path d="M 2.21875 -18.578125 C 2.21875 -22.203125 2.914062 -25.429688 4.3125 -28.265625 C 5.707031 -31.097656 7.710938 -33.285156 10.328125 -34.828125 C 12.953125 -36.378906 15.992188 -37.15625 19.453125 -37.15625 C 24.378906 -37.15625 28.398438 -35.648438 31.515625 -32.640625 C 34.628906 -29.628906 36.363281 -25.539062 36.71875 -20.375 L 36.796875 -17.875 C 36.796875 -12.269531 35.234375 -7.773438 32.109375 -4.390625 C 28.984375 -1.015625 24.789062 0.671875 19.53125 0.671875 C 14.269531 0.671875 10.066406 -1.007812 6.921875 -4.375 C 3.785156 -7.75 2.21875 -12.335938 2.21875 -18.140625 Z M 11.96875 -17.875 C 11.96875 -14.40625 12.617188 -11.753906 13.921875 -9.921875 C 15.234375 -8.097656 17.101562 -7.1875 19.53125 -7.1875 C 21.882812 -7.1875 23.722656 -8.085938 25.046875 -9.890625 C 26.378906 -11.703125 27.046875 -14.597656 27.046875 -18.578125 C 27.046875 -21.972656 26.378906 -24.601562 25.046875 -26.46875 C 23.722656 -28.332031 21.859375 -29.265625 19.453125 -29.265625 C 17.078125 -29.265625 15.234375 -28.335938 13.921875 -26.484375 C 12.617188 -24.628906 11.96875 -21.757812 11.96875 -17.875 Z M 11.96875 -17.875 "/></g></g></g><g fill="#64ebb6" fill-opacity="1"><g transform="translate(353.131989, 329.002507)"><g><path d="M 14.03125 0 L 4.25 0 L 4.25 -51.796875 L 14.03125 -51.796875 Z M 14.03125 0 "/></g></g></g></svg>