<svg xmlns="http://www.w3.org/2000/svg" xmlns:xlink="http://www.w3.org/1999/xlink" width="500" zoomAndPan="magnify" viewBox="0 0 375 374.999991" height="500" preserveAspectRatio="xMidYMid meet" version="1.0"><defs><filter x="0%" y="0%" width="100%" height="100%" id="70a8dffffb"><feColorMatrix values="0 0 0 0 1 0 0 0 0 1 0 0 0 0 1 0 0 0 1 0" color-interpolation-filters="sRGB"/></filter><clipPath id="d2ee0e4ce7"><path d="M 0 23.023438 L 375 23.023438 L 375 351.976562 L 0 351.976562 Z M 0 23.023438 " clip-rule="nonzero"/></clipPath><clipPath id="f84677e4e2"><path d="M 0 120.074219 C 0 224.550781 187.5 351.976562 187.5 351.976562 C 187.5 351.976562 374.175781 223.648438 375 120.074219 C 375 66.601562 331.425781 23.023438 277.949219 23.023438 C 236.851562 23.023438 201.449219 49.351562 187.5 85.5 C 173.550781 49.351562 138.148438 23.023438 97.050781 23.023438 C 43.574219 23.023438 0 66.601562 0 120.074219 " clip-rule="nonzero"/></clipPath><mask id="da9690887f"><g filter="url(#70a8dffffb)"><rect x="-37.5" width="450" fill="#000000" y="-37.499999" height="449.999989" fill-opacity="0.82"/></g></mask><clipPath id="6cf498edb4"><path d="M 0.277344 0.183594 L 299 0.183594 L 299 261.976562 L 0.277344 261.976562 Z M 0.277344 0.183594 " clip-rule="nonzero"/></clipPath><clipPath id="e839b7e148"><path d="M 0.277344 77.417969 C 0.277344 160.5625 149.5 261.976562 149.5 261.976562 C 149.5 261.976562 298.0625 159.847656 298.722656 77.417969 C 298.722656 34.859375 264.042969 0.183594 221.484375 0.183594 C 188.773438 0.183594 160.601562 21.132812 149.5 49.902344 C 138.398438 21.132812 110.226562 0.183594 77.515625 0.183594 C 34.957031 0.183594 0.277344 34.859375 0.277344 77.417969 " clip-rule="nonzero"/></clipPath><clipPath id="91ff5782b4"><rect x="0" width="300" y="0" height="263"/></clipPath><clipPath id="b2f696e39f"><path d="M 0 148 L 203.742188 148 L 203.742188 351.976562 L 0 351.976562 Z M 0 148 " clip-rule="nonzero"/></clipPath><clipPath id="18210510ec"><path d="M 136.324219 148.234375 L 67.417969 148.234375 C 66.425781 148.234375 65.472656 148.628906 64.769531 149.332031 C 64.0625 150.035156 63.667969 150.988281 63.667969 151.984375 L 63.667969 208.152344 C 63.667969 209.148438 63.273438 210.101562 62.570312 210.804688 C 61.867188 211.507812 60.914062 211.902344 59.917969 211.902344 L 3.75 211.902344 C 2.753906 211.902344 1.800781 212.296875 1.097656 213 C 0.394531 213.703125 0 214.65625 0 215.652344 L 0 284.554688 C 0 285.550781 0.394531 286.503906 1.097656 287.207031 C 1.800781 287.910156 2.753906 288.304688 3.75 288.304688 L 59.917969 288.304688 C 60.914062 288.304688 61.867188 288.699219 62.570312 289.402344 C 63.273438 290.105469 63.667969 291.0625 63.667969 292.054688 L 63.667969 348.226562 C 63.667969 349.21875 64.0625 350.171875 64.769531 350.875 C 65.472656 351.578125 66.425781 351.976562 67.417969 351.976562 L 136.324219 351.976562 C 137.316406 351.976562 138.269531 351.578125 138.972656 350.875 C 139.675781 350.171875 140.074219 349.21875 140.074219 348.226562 L 140.074219 292.054688 C 140.074219 291.0625 140.46875 290.105469 141.171875 289.402344 C 141.875 288.699219 142.828125 288.304688 143.824219 288.304688 L 199.992188 288.304688 C 200.984375 288.304688 201.941406 287.910156 202.644531 287.207031 C 203.347656 286.503906 203.742188 285.550781 203.742188 284.554688 L 203.742188 215.652344 C 203.742188 214.65625 203.347656 213.703125 202.644531 213 C 201.941406 212.296875 200.984375 211.902344 199.992188 211.902344 L 143.824219 211.902344 C 142.828125 211.902344 141.875 211.507812 141.171875 210.804688 C 140.46875 210.101562 140.074219 209.148438 140.074219 208.152344 L 140.074219 151.984375 C 140.074219 150.988281 139.675781 150.035156 138.972656 149.332031 C 138.269531 148.628906 137.316406 148.234375 136.324219 148.234375 Z M 136.324219 148.234375 " clip-rule="nonzero"/></clipPath></defs><g clip-path="url(#d2ee0e4ce7)"><g clip-path="url(#f84677e4e2)"><path fill="#64ebb6" d="M 0 23.023438 L 374.660156 23.023438 L 374.660156 351.976562 L 0 351.976562 Z M 0 23.023438 " fill-opacity="1" fill-rule="nonzero"/></g></g><g mask="url(#da9690887f)"><g transform="matrix(1, 0, 0, 1, 38, 90)"><g clip-path="url(#91ff5782b4)"><g clip-path="url(#6cf498edb4)"><g clip-path="url(#e839b7e148)"><path fill="#1b9ce4" d="M 0.277344 0.183594 L 298.449219 0.183594 L 298.449219 261.976562 L 0.277344 261.976562 Z M 0.277344 0.183594 " fill-opacity="1" fill-rule="nonzero"/></g></g></g></g></g><g clip-path="url(#b2f696e39f)"><g clip-path="url(#18210510ec)"><path fill="#ffffff" d="M 0 148.234375 L 203.742188 148.234375 L 203.742188 351.976562 L 0 351.976562 Z M 0 148.234375 " fill-opacity="1" fill-rule="nonzero"/></g></g></svg>